<?xml version="1.0" standalone="no"?>
<!DOCTYPE svg PUBLIC "-//W3C//DTD SVG 20010904//EN"
 "http://www.w3.org/TR/2001/REC-SVG-20010904/DTD/svg10.dtd">
<svg version="1.0" xmlns="http://www.w3.org/2000/svg"
 width="1300.000000pt" height="866.000000pt" viewBox="0 0 1300.000000 866.000000"
 preserveAspectRatio="xMidYMid meet">

<g transform="translate(0.000000,866.000000) scale(0.100000,-0.100000)"
fill="#000000" stroke="none">
<path d="M5133 8599 c-34 -4 -104 -22 -156 -39 -75 -26 -108 -43 -158 -85
-102 -85 -131 -116 -178 -193 -24 -39 -50 -77 -57 -83 -8 -6 -14 -19 -14 -29
0 -10 -12 -44 -27 -76 -15 -33 -29 -79 -31 -104 -2 -25 -8 -53 -13 -62 -5 -10
-12 -73 -15 -140 -3 -67 -7 -124 -9 -126 -2 -2 1 -17 7 -33 8 -24 13 -27 24
-18 8 6 14 26 13 43 0 26 -2 28 -9 11 -6 -13 -9 -15 -9 -5 0 8 3 22 8 29 8 12
11 8 16 -15 11 -49 17 -61 22 -46 3 7 0 26 -7 42 -8 20 -9 34 -1 47 5 11 8 29
5 40 -4 14 2 25 21 37 53 35 65 50 65 84 0 39 13 67 48 102 31 32 43 61 30 78
-15 17 10 44 33 37 15 -5 19 -1 19 19 0 14 4 28 10 31 5 3 25 30 44 59 38 55
89 101 146 131 19 10 37 21 40 25 3 3 21 11 40 16 33 10 37 8 67 -24 23 -23
39 -32 52 -27 13 4 29 -3 47 -20 18 -17 31 -22 38 -15 6 6 16 4 28 -7 10 -9
18 -13 18 -10 0 4 24 -8 53 -27 28 -18 63 -37 76 -41 13 -4 43 -25 67 -47 34
-31 51 -39 85 -41 26 -1 51 -9 62 -20 10 -10 25 -16 34 -13 8 3 24 6 36 6 30
1 58 24 60 49 2 25 13 27 25 5 7 -13 10 -14 21 0 10 12 17 13 44 2 18 -8 37
-11 44 -9 21 8 106 -167 132 -272 4 -16 13 -29 20 -27 7 1 12 -6 11 -15 -4
-32 0 -44 10 -38 15 9 11 72 -9 155 -33 132 -59 195 -133 326 -71 123 -137
185 -272 254 -88 44 -107 50 -240 69 -152 22 -184 23 -283 10z"/>
<path d="M5034 7729 c-3 -5 -19 -9 -36 -9 -26 0 -29 -2 -18 -15 10 -12 27 -15
73 -11 46 4 68 0 98 -16 38 -20 39 -20 63 0 21 16 23 22 13 37 -10 13 -32 17
-100 20 -48 1 -90 -1 -93 -6z"/>
<path d="M5270 7676 c0 -19 4 -24 15 -19 18 6 16 34 -2 41 -8 2 -13 -6 -13
-22z"/>
<path d="M5656 7619 c-33 -26 -33 -32 5 -46 39 -15 29 -33 -18 -33 -23 0 -48
-9 -70 -26 -29 -22 -33 -30 -33 -74 0 -73 54 -152 112 -164 33 -6 68 14 68 40
0 7 8 18 18 23 16 10 15 10 -3 11 -19 1 -18 2 2 10 12 5 25 21 29 35 8 31 9
31 46 0 16 -14 39 -25 50 -25 38 0 -55 76 -112 91 -39 10 -47 15 -35 22 9 5
28 6 43 3 20 -5 23 -4 12 4 -8 5 -25 10 -36 10 -12 0 -25 7 -28 16 -9 23 -8
24 14 24 11 0 20 5 20 11 0 10 79 7 152 -7 39 -8 28 17 -20 44 -95 53 -173 65
-216 31z m39 -249 c19 -8 19 -9 -2 -9 -12 -1 -25 4 -28 9 -7 12 2 12 30 0z"/>
<path d="M5168 7575 c-29 -20 -41 -23 -67 -15 -20 5 -47 4 -82 -5 -61 -16 -79
-30 -26 -20 32 6 37 5 37 -12 0 -22 48 -53 84 -53 19 0 27 6 32 25 7 28 14 31
32 13 16 -16 15 -28 -2 -28 -8 0 -17 -4 -21 -9 -3 -6 3 -8 13 -6 15 3 18 -2
14 -21 -3 -15 -11 -24 -23 -24 -12 0 -19 -7 -19 -20 0 -21 15 -27 25 -10 4 6
14 10 23 9 35 -3 60 12 55 32 -4 13 3 26 21 40 37 29 34 61 -11 98 -21 17 -40
31 -43 31 -3 0 -22 -11 -42 -25z m-108 -51 c0 -8 -4 -12 -10 -9 -5 3 -10 10
-10 16 0 5 5 9 10 9 6 0 10 -7 10 -16z"/>
<path d="M4555 7531 c-8 -14 3 -51 16 -51 5 0 6 12 3 28 -8 34 -10 36 -19 23z"/>
<path d="M4392 6586 c-69 -27 -202 -146 -202 -181 0 -13 6 -30 13 -37 7 -7 24
-33 38 -58 13 -25 26 -47 29 -50 3 -3 13 -21 24 -40 10 -19 33 -57 51 -85 18
-27 44 -69 59 -92 67 -108 402 -431 423 -409 5 5 -38 69 -61 91 -9 9 -21 25
-26 36 -6 10 -18 19 -26 19 -8 0 -13 3 -11 8 3 4 -32 39 -77 77 -88 75 -111
101 -235 265 -44 58 -86 112 -94 121 -32 37 -69 118 -64 141 4 14 40 48 89 85
139 103 167 146 70 109z"/>
<path d="M5801 6509 l-24 -32 40 -38 c22 -21 44 -35 48 -31 5 4 5 2 2 -4 -4
-7 0 -17 8 -24 8 -7 15 -9 15 -5 0 5 9 0 20 -10 11 -10 20 -24 20 -32 0 -9 5
-11 13 -7 6 4 9 4 5 0 -8 -10 24 -44 36 -38 5 3 7 1 4 -4 -6 -12 28 -44 38
-36 4 4 4 2 1 -4 -8 -13 20 -27 34 -18 5 3 8 2 7 -3 -1 -4 6 -23 15 -40 10
-18 13 -33 7 -33 -17 0 -11 -15 13 -29 20 -13 21 -13 8 2 -11 14 -11 20 -1 32
10 12 9 16 -4 21 -9 3 -16 17 -16 31 0 14 -8 32 -17 39 -16 12 -16 13 -1 8 34
-11 29 76 -5 98 -9 6 -9 10 1 16 10 7 10 12 -3 22 -13 11 -18 11 -24 1 -6 -10
-10 -9 -14 3 -3 8 -1 17 6 20 7 2 4 5 -5 5 -10 1 -18 5 -18 9 0 5 -18 17 -39
27 -22 10 -42 24 -45 31 -3 8 -15 14 -26 14 -11 0 -20 4 -20 9 0 5 -8 11 -17
15 -10 3 -23 8 -28 11 -6 3 -22 -9 -34 -26z"/>
<path d="M5752 6453 c-11 -19 8 -115 37 -183 47 -112 44 -108 49 -81 4 22 24
51 36 51 3 0 17 11 32 25 14 13 31 22 37 18 8 -5 7 -8 -1 -11 -14 -4 -16 -62
-2 -62 6 0 10 15 10 33 0 24 3 28 10 17 5 -8 10 -25 10 -37 0 -13 5 -23 11
-23 5 0 24 -13 42 -30 36 -33 47 -37 47 -15 0 9 -9 15 -22 16 l-23 0 23 10
c19 7 23 29 6 29 -3 0 -2 -4 1 -10 17 -27 -17 -4 -61 42 -27 28 -67 65 -89 81
-22 16 -33 27 -25 25 9 -1 17 1 18 7 1 5 -4 10 -11 10 -6 0 -34 24 -61 53 -53
57 -60 60 -74 35z m273 -253 c3 -5 1 -10 -4 -10 -6 0 -11 5 -11 10 0 6 2 10 4
10 3 0 8 -4 11 -10z"/>
<path d="M5610 6342 c-14 -9 -28 -21 -32 -27 -4 -5 -7 -86 -8 -180 0 -105 -6
-200 -15 -250 -31 -168 -47 -297 -40 -323 7 -25 8 -25 15 -7 5 11 9 43 10 70
0 28 7 61 15 75 8 14 15 39 16 55 1 30 1 30 9 5 l8 -25 1 26 c1 15 8 32 16 39
8 7 15 21 15 30 0 28 11 51 21 44 5 -3 9 -29 9 -58 0 -49 2 -54 25 -58 32 -7
37 16 37 176 0 185 -21 345 -49 374 -7 7 -13 22 -13 33 0 23 -7 23 -40 1z"/>
<path d="M5155 6190 c-3 -5 -3 -10 2 -10 4 -1 34 -3 66 -6 41 -4 57 -2 57 6 0
8 9 11 25 8 13 -3 22 -1 19 3 -7 12 -161 11 -169 -1z"/>
<path d="M6089 6063 c14 -42 16 -45 19 -21 3 28 -13 68 -27 68 -5 0 -1 -21 8
-47z"/>
<path d="M5436 5920 c-16 -30 -39 -68 -51 -85 -13 -16 -37 -54 -54 -84 l-32
-53 28 -25 27 -26 15 23 c24 36 68 144 76 187 4 21 11 43 17 50 5 6 8 24 6 40
-3 26 -5 24 -32 -27z"/>
<path d="M8633 5928 c-24 -12 -43 -24 -43 -28 0 -3 26 -11 58 -17 49 -9 59 -8
70 5 7 9 34 19 60 23 47 6 47 6 15 14 -18 4 -33 11 -33 16 0 17 -86 8 -127
-13z"/>
<path d="M7877 5874 c-10 -11 -9 -52 3 -59 6 -3 13 1 16 10 8 19 -8 60 -19 49z"/>
<path d="M9506 5816 c-20 -43 -20 -49 3 -63 15 -10 20 -9 24 1 3 8 0 19 -6 25
-6 6 -8 13 -5 16 3 3 12 -1 21 -9 8 -8 17 -12 21 -9 10 11 7 -6 -6 -27 -10
-15 -10 -24 -1 -38 6 -11 8 -25 3 -32 -7 -11 -18 -4 -48 26 l-39 39 -11 -24
c-12 -25 -8 -41 9 -41 6 0 7 5 4 10 -3 6 -1 10 4 10 6 0 11 -5 11 -12 0 -6 19
-40 42 -75 46 -69 55 -67 53 12 -1 22 -2 73 -3 113 -2 57 -6 76 -22 92 -27 27
-35 25 -54 -14z"/>
<path d="M9601 5798 c4 -24 8 -46 9 -50 0 -16 17 -7 30 17 12 23 11 28 -10 50
-33 35 -39 31 -29 -17z"/>
<path d="M7275 5743 c-4 -13 -11 -23 -15 -23 -4 0 -12 -19 -19 -42 -7 -24 -21
-65 -31 -93 -11 -27 -33 -89 -51 -137 -17 -49 -37 -88 -45 -88 -7 0 -22 -16
-34 -35 -18 -29 -26 -34 -51 -31 -17 2 -34 -3 -41 -11 -15 -19 -18 -54 -4 -47
6 3 0 -4 -13 -16 -19 -16 -27 -36 -32 -82 -4 -33 -14 -68 -23 -76 -15 -15 -16
-10 -16 52 0 67 -15 141 -32 161 -14 15 -9 38 6 32 10 -4 13 -1 10 9 -15 49
-13 48 -33 25 -26 -30 -31 -27 -31 20 0 28 4 38 12 33 20 -12 -3 18 -51 68
-48 50 -61 52 -61 10 0 -38 -11 -72 -22 -72 -5 0 -6 15 -2 34 16 86 11 105
-37 146 -24 21 -48 35 -53 30 -4 -5 -14 -99 -20 -209 -7 -110 -15 -204 -19
-207 -8 -9 -10 4 -8 73 1 51 -13 79 -23 46 -9 -31 -26 -151 -32 -225 -3 -40
-11 -80 -18 -88 -7 -8 -11 -21 -8 -29 3 -10 -2 -12 -22 -7 -24 6 -26 4 -26
-25 0 -17 -9 -42 -20 -56 -15 -19 -20 -41 -20 -83 0 -37 -5 -62 -14 -69 -9 -8
-16 -8 -20 -2 -4 5 0 13 8 18 12 7 12 11 1 27 -13 18 -16 18 -49 2 -19 -9 -47
-16 -63 -16 -37 0 -62 -27 -70 -74 -5 -30 -8 -34 -20 -25 -20 17 -26 5 -15
-34 8 -30 7 -39 -9 -56 -11 -12 -27 -21 -35 -21 -9 0 -14 -7 -12 -17 3 -19
-12 -21 -46 -7 -16 6 -18 4 -13 -9 5 -12 1 -17 -14 -17 -11 0 -33 -13 -49 -30
-16 -16 -35 -27 -43 -24 -17 6 -76 -58 -152 -166 -46 -64 -326 -360 -341 -360
-5 0 -30 -22 -92 -80 -29 -27 -45 -39 -117 -87 -26 -18 -66 -50 -89 -71 -23
-21 -48 -41 -56 -44 -9 -3 10 -17 50 -37 77 -37 86 -44 124 -95 l29 -38 28 30
c16 17 29 40 29 51 0 14 11 25 33 35 17 7 47 34 66 60 19 25 38 46 41 46 3 0
16 17 28 38 11 20 44 61 71 91 28 29 51 62 51 72 0 11 5 19 11 19 5 0 17 16
25 35 8 19 19 35 24 35 14 0 50 42 50 59 0 12 74 91 85 91 7 0 1 -51 -6 -56
-5 -3 -9 -13 -9 -22 0 -9 -11 -39 -24 -67 -35 -72 -82 -174 -101 -220 -15 -37
-37 -74 -134 -225 -48 -75 -106 -147 -217 -266 -87 -95 -93 -105 -100 -155 -4
-30 -13 -67 -22 -83 -14 -29 -50 -65 -64 -66 -4 0 -18 -4 -32 -10 -24 -9 -25
-11 -11 -37 19 -36 19 -84 1 -128 -10 -24 -11 -35 -4 -35 21 0 121 85 178 150
74 86 104 119 169 185 45 45 57 52 69 42 13 -10 13 -9 2 10 -8 12 -16 21 -19
20 -4 -1 -6 1 -6 4 0 4 -9 17 -20 30 -12 14 -6 11 17 -8 25 -21 44 -30 58 -26
15 4 19 2 14 -10 -3 -8 0 -18 5 -22 6 -3 9 -11 5 -16 -3 -5 0 -8 7 -7 7 2 14
-5 17 -14 2 -13 -2 -16 -18 -13 -11 2 -18 0 -15 -5 3 -5 -6 -12 -20 -16 -14
-3 -25 -11 -25 -18 0 -29 -231 -271 -325 -340 -95 -70 -180 -126 -192 -126 -6
0 -16 -7 -23 -15 -7 -9 -15 -13 -17 -11 -3 2 -14 -4 -26 -14 -12 -10 -33 -28
-47 -40 -17 -14 -19 -18 -5 -10 11 5 79 32 150 59 72 28 209 84 305 126 96 43
191 83 210 90 92 33 201 93 230 126 3 3 20 11 37 18 18 7 43 26 55 42 23 29
58 39 58 18 0 -7 69 -80 153 -164 119 -118 166 -158 213 -180 32 -15 66 -37
74 -49 8 -12 26 -32 40 -46 13 -14 25 -28 25 -31 0 -18 101 -172 126 -193 16
-14 29 -29 29 -35 0 -22 20 -9 75 51 32 34 53 64 46 66 -24 8 -10 22 17 16 15
-4 24 -4 20 1 -4 4 9 20 28 37 19 17 34 36 34 44 0 17 -1 17 -34 4 -19 -7 -24
-14 -19 -27 7 -17 6 -17 -11 0 -9 9 -23 17 -29 17 -8 0 -7 -3 2 -9 7 -5 10
-14 6 -21 -5 -8 -12 -7 -26 6 -10 9 -19 14 -19 10 0 -4 10 -16 22 -26 l22 -17
-22 -7 c-24 -8 -29 -22 -10 -28 9 -3 9 -6 0 -12 -8 -4 -16 3 -24 21 -7 15 -21
34 -30 41 -10 7 -18 24 -18 37 0 13 -7 30 -15 39 -8 8 -15 25 -15 38 0 40 -21
102 -41 121 -10 10 -19 29 -19 43 0 13 -4 32 -9 42 -9 19 -21 52 -62 170 -31
87 -56 135 -68 127 -4 -2 -23 9 -42 24 -30 25 -149 91 -164 91 -10 0 -4 -46
10 -70 8 -14 14 -35 15 -48 0 -28 26 -80 50 -101 18 -16 35 -131 19 -131 -15
0 -69 71 -69 91 0 24 -41 99 -86 154 -18 22 -32 44 -32 48 0 5 -3 11 -6 14 -3
4 -6 -1 -6 -10 0 -10 -4 -17 -9 -17 -15 0 -21 -45 -11 -80 5 -18 19 -44 32
-57 l21 -23 -26 0 c-22 0 -30 9 -56 64 -17 35 -31 80 -31 100 0 39 -35 90 -56
82 -7 -3 -18 2 -26 11 -11 14 -10 16 10 11 21 -6 22 -3 20 38 0 24 2 47 5 50
4 4 -3 18 -13 32 -12 15 -20 40 -20 64 0 22 -5 49 -11 60 -10 18 -8 24 9 38
12 10 23 35 27 61 4 24 11 50 17 56 6 7 8 31 6 53 -3 36 -1 42 24 53 16 6 26
17 24 23 -2 6 3 11 12 10 11 -1 17 7 17 24 1 26 50 107 63 103 4 -2 7 6 7 16
1 10 5 25 11 32 11 14 30 57 54 117 7 18 20 38 29 45 9 7 17 20 19 31 2 10 12
28 23 39 10 11 19 24 19 29 0 4 8 16 18 26 26 26 62 91 62 113 0 10 3 18 8 18
29 -5 42 3 42 26 0 13 6 36 13 52 12 27 125 145 165 173 12 8 22 20 22 26 0 6
7 17 15 24 8 6 13 17 12 23 -1 7 9 11 26 9 15 -2 27 1 27 8 0 6 22 35 48 63
26 29 59 74 73 100 16 32 39 58 71 78 27 18 57 48 70 72 13 23 45 55 73 74 28
18 55 37 61 42 7 6 22 4 40 -5 l29 -15 -25 28 c-13 15 -51 56 -83 89 -33 35
-55 64 -49 68 6 3 14 -3 17 -14 6 -18 9 -19 23 -8 15 11 15 11 5 -3 -10 -13
-5 -22 30 -57 24 -24 47 -39 52 -35 4 5 5 3 2 -3 -4 -7 -1 -17 7 -23 19 -16
52 30 59 80 2 20 16 56 31 81 14 25 26 58 26 75 0 17 9 42 21 57 17 22 20 35
14 71 -5 37 -3 45 9 45 9 0 16 4 16 10 0 5 -6 7 -14 4 -15 -6 -29 32 -19 50 4
5 6 32 6 60 -1 28 3 56 9 63 5 7 8 18 5 25 -4 8 -8 5 -12 -9z m-245 -467 c-7
-7 -13 -7 -20 0 -6 6 -3 10 10 10 13 0 16 -4 10 -10z m-330 -432 c0 -7 -6 -19
-13 -26 -7 -7 -28 -33 -46 -58 -17 -24 -72 -88 -121 -141 -50 -53 -98 -107
-109 -120 -41 -51 -35 -1 21 166 11 33 27 85 36 115 9 30 17 56 18 58 1 2 19
5 40 8 21 3 40 7 43 10 3 2 33 4 68 3 44 -1 63 -6 63 -15z m-868 -1586 c5 -48
-8 -78 -34 -78 -10 0 -18 -4 -18 -9 0 -12 -28 -41 -40 -41 -4 0 -10 10 -13 21
-4 15 8 40 41 85 26 35 50 63 53 64 4 0 9 -19 11 -42z m-202 -104 c0 -11 -5
-14 -16 -10 -12 4 -15 2 -10 -9 3 -8 1 -15 -5 -15 -16 0 -23 31 -8 41 22 14
39 11 39 -7z m70 -61 c0 -33 -15 -60 -24 -45 -8 13 4 72 15 72 5 0 9 -12 9
-27z m-44 -55 c2 1 4 -1 5 -5 0 -5 8 -16 16 -26 9 -9 14 -20 10 -23 -3 -3 -10
4 -17 15 -6 13 -16 19 -23 15 -7 -4 -9 -3 -4 1 4 5 -3 20 -15 34 l-23 26 24
-20 c13 -11 25 -19 27 -17z m80 -90 l29 -33 -32 29 c-31 28 -38 36 -30 36 2 0
16 -15 33 -32z m394 -58 c0 -25 -12 -60 -20 -60 -4 0 -13 13 -20 30 -7 16 -15
29 -19 28 -14 -1 -22 2 -18 10 3 4 21 7 41 7 25 0 36 -4 36 -15z m200 -63 c0
-8 12 -19 26 -25 14 -7 22 -17 19 -23 -4 -5 0 -18 8 -27 8 -9 33 -54 55 -100
31 -67 37 -85 25 -89 -24 -9 -64 18 -61 41 2 12 -1 21 -7 21 -5 0 -9 -4 -7 -8
1 -5 -3 -7 -9 -5 -6 2 -20 25 -30 52 -10 27 -25 56 -33 65 -9 10 -19 32 -22
49 -5 26 -3 32 11 32 11 0 15 5 11 15 -3 8 -1 15 4 15 6 0 10 -6 10 -13z
m-166 -13 c17 -7 22 -54 6 -54 -5 0 -10 5 -10 10 0 6 -9 19 -20 30 -21 21 -10
27 24 14z m331 -324 c-26 -11 -45 -12 -45 -2 0 4 15 8 33 9 26 1 28 0 12 -7z"/>
<path d="M5745 3190 c-3 -5 1 -10 10 -10 9 0 13 5 10 10 -3 6 -8 10 -10 10 -2
0 -7 -4 -10 -10z"/>
<path d="M6680 5677 c0 -34 -12 -41 -26 -16 -15 29 -39 32 -42 5 -1 -24 36
-68 51 -59 6 3 7 1 4 -4 -4 -6 2 -18 13 -28 18 -17 25 -14 21 9 -1 4 4 15 11
24 10 12 10 14 1 8 -10 -5 -13 3 -13 33 0 22 -4 43 -10 46 -6 3 -10 -4 -10
-18z"/>
<path d="M6755 5643 c-4 -27 -11 -63 -17 -81 -9 -31 -8 -35 44 -87 29 -30 56
-55 59 -55 4 0 7 12 7 28 0 15 3 37 7 50 6 19 4 22 -22 22 -16 0 -34 -5 -40
-11 -19 -19 -26 9 -24 97 2 93 -4 110 -14 37z"/>
<path d="M7892 5665 c-1 -11 16 -40 39 -65 22 -25 49 -63 61 -85 11 -22 38
-60 58 -85 47 -56 64 -90 80 -160 10 -43 24 -66 64 -109 28 -30 46 -56 40 -58
-6 -2 -19 -10 -30 -17 -16 -12 -17 -17 -6 -41 10 -22 10 -30 0 -42 -7 -8 -13
-22 -14 -30 -2 -8 -4 -16 -6 -17 -2 -1 -16 -10 -31 -20 -17 -10 -26 -23 -23
-32 3 -8 1 -14 -3 -14 -5 0 -11 5 -13 12 -4 12 2 21 56 84 16 19 26 41 22 49
-8 23 -23 18 -43 -15 -17 -29 -33 -39 -33 -21 0 6 5 13 10 16 6 4 8 11 4 16
-8 14 -22 2 -42 -35 -26 -51 -105 -115 -134 -109 -24 4 -36 -9 -52 -60 -4 -12
-10 -15 -18 -10 -7 4 -17 8 -23 8 -5 0 -11 10 -13 21 -4 28 -49 36 -114 21
-41 -10 -47 -15 -52 -43 -4 -17 -17 -40 -31 -52 -13 -11 -29 -40 -36 -64 -6
-24 -17 -54 -24 -68 -7 -14 -16 -41 -20 -60 -7 -31 -6 -33 9 -21 9 7 16 22 16
33 0 34 58 108 85 108 9 0 24 13 33 30 21 37 61 42 63 8 1 -17 2 -19 6 -5 3
12 15 17 40 17 33 0 35 1 29 28 -5 20 -4 23 4 12 5 -8 10 -23 10 -34 0 -10 10
-26 23 -36 18 -14 22 -26 19 -52 -2 -18 -4 -44 -5 -58 -1 -14 -10 -36 -19 -50
-10 -13 -14 -27 -8 -30 15 -9 7 -50 -10 -52 -8 0 5 -4 30 -7 44 -6 45 -7 59
-56 8 -27 13 -75 12 -105 -1 -39 6 -74 23 -115 13 -33 27 -82 31 -108 7 -53
11 -76 21 -121 5 -25 8 -27 16 -13 5 10 7 21 4 25 -3 5 -5 55 -6 113 -1 127
21 274 43 297 11 10 17 12 17 4 0 -7 16 5 35 27 19 21 35 44 35 50 0 6 5 11
10 11 6 0 8 10 4 24 -3 13 -1 27 5 31 6 3 9 11 6 16 -4 5 -1 9 5 9 7 0 9 -8 5
-20 -4 -13 -2 -20 6 -20 7 0 20 -7 30 -16 11 -10 19 -12 24 -5 3 6 1 11 -5 11
-6 0 -8 5 -5 10 3 6 1 10 -6 10 -7 0 -9 3 -6 6 3 4 2 15 -4 25 -7 15 -6 17 6
13 8 -4 15 -10 15 -16 0 -5 19 -18 43 -28 41 -18 92 -21 115 -6 13 8 123 45
135 46 4 0 7 -9 7 -19 0 -11 -15 -29 -36 -41 -33 -21 -56 -26 -129 -30 -30 -2
-30 -2 -5 -11 21 -7 18 -8 -13 -4 -50 5 -45 -16 7 -29 66 -15 156 6 218 52 70
51 94 59 103 33 3 -11 12 -20 18 -18 21 4 8 -47 -16 -69 -19 -16 -21 -22 -11
-32 17 -16 94 -16 94 0 0 6 3 8 7 5 3 -4 11 -2 18 3 15 13 38 -34 30 -61 -4
-13 -1 -19 9 -20 28 -2 30 -4 60 -32 28 -26 76 -37 76 -17 0 5 16 30 35 56 19
25 35 55 35 67 0 34 18 6 22 -33 2 -27 8 -36 25 -38 12 -2 27 -10 33 -18 7 -8
22 -14 33 -14 11 0 33 -16 50 -35 16 -19 35 -35 42 -35 7 0 15 -18 19 -40 3
-22 11 -40 18 -40 6 0 9 -3 5 -6 -3 -3 -1 -18 4 -32 7 -17 7 -48 0 -92 -5 -36
-12 -98 -16 -138 -6 -84 2 -87 54 -14 17 23 38 42 46 42 8 0 15 4 15 8 0 13
147 156 170 164 24 9 68 -6 86 -30 31 -41 6 -125 -79 -267 -33 -55 -72 -113
-86 -128 -36 -40 -116 -97 -141 -102 -29 -6 -67 14 -73 37 -8 27 -23 15 -37
-28 -9 -27 -9 -38 -1 -43 7 -5 9 -20 5 -39 -4 -17 -10 -29 -15 -26 -8 4 -14
-35 -10 -60 1 -4 -2 -13 -7 -20 -5 -6 -12 -24 -16 -41 -10 -42 -64 -146 -87
-168 -11 -11 -41 -20 -76 -23 -32 -3 -65 -7 -73 -10 -25 -9 -173 -51 -205 -58
-89 -21 -117 -49 -97 -97 14 -34 341 95 465 184 16 11 37 33 47 49 l17 29 13
-30 c7 -17 19 -61 29 -98 l16 -68 67 -7 c85 -8 151 -46 332 -188 46 -36 67
-74 139 -250 l35 -85 -5 -160 c-4 -119 -1 -194 11 -294 21 -164 22 -164 55
-156 46 12 80 69 38 64 -31 -4 -71 2 -61 9 7 4 14 16 17 27 4 18 5 18 6 -2 1
-18 7 -23 26 -23 14 0 25 5 25 10 0 6 12 10 26 10 16 0 23 -4 18 -12 -4 -7 -3
-8 4 -4 7 4 12 13 12 21 0 8 7 11 18 8 12 -3 36 13 72 47 l53 51 -28 29 c-15
16 -33 27 -38 23 -6 -3 -7 -1 -3 5 3 6 -4 19 -16 29 -13 11 -50 48 -83 84 -33
35 -8 14 55 -48 63 -62 122 -111 130 -110 24 4 41 18 34 28 -3 5 -1 8 4 7 15
-5 334 319 323 327 -6 3 -11 1 -11 -5 0 -6 -4 -9 -9 -6 -5 4 -12 0 -14 -6 -4
-10 -6 -10 -6 0 -1 8 -6 10 -13 6 -7 -4 -9 -3 -5 1 4 5 14 10 22 12 8 2 22 4
31 6 8 2 19 9 24 16 4 8 13 11 18 7 11 -7 9 23 -3 47 -4 6 3 1 15 -13 12 -14
19 -20 16 -13 -10 19 12 25 24 6 10 -16 10 -16 6 2 -4 13 5 32 27 56 46 52 67
78 67 85 0 2 9 14 20 26 11 12 20 29 20 39 0 20 30 34 40 19 4 -6 8 18 9 54 1
40 -2 66 -9 66 -5 0 -10 -6 -10 -14 0 -8 -9 -24 -20 -37 -19 -24 -19 -24 0 15
21 41 60 77 60 55 0 -10 3 -10 11 -2 8 8 7 17 -1 34 -10 18 -10 24 2 33 8 6
14 19 12 29 -1 9 4 17 11 17 11 0 9 10 -6 45 -11 25 -17 50 -14 55 3 6 1 10
-6 10 -8 0 -8 4 1 15 7 8 16 12 22 9 5 -3 6 5 2 20 -5 20 -2 26 9 26 9 0 15 8
14 19 0 11 -6 17 -14 14 -19 -7 -16 7 5 24 15 13 14 14 -15 9 -22 -4 -35 0
-44 12 -7 9 -9 14 -5 10 5 -4 15 -3 22 3 10 8 11 16 3 31 -6 11 -9 29 -6 39 3
10 1 21 -3 24 -5 3 -7 16 -5 30 1 14 -5 31 -13 37 -10 8 -13 9 -9 2 4 -7 0
-14 -8 -18 -8 -3 -17 -1 -20 5 -4 5 -12 6 -18 2 -12 -8 -17 -9 -37 -12 -5 0
-10 -6 -10 -12 0 -6 6 -9 14 -6 7 3 18 1 24 -5 8 -8 16 -8 27 2 8 7 15 9 15 4
0 -5 5 -2 10 6 9 14 10 13 10 -17 0 -5 -6 -8 -12 -8 -7 0 -13 -7 -13 -15 0 -8
-4 -21 -9 -28 -4 -7 -3 -19 4 -27 8 -9 8 -15 0 -20 -6 -3 -8 -11 -5 -16 3 -5
-1 -6 -9 -3 -9 3 -16 1 -16 -5 0 -10 14 -15 33 -12 5 1 6 -3 2 -8 -3 -6 -13
-7 -23 -4 -15 6 -16 5 -2 -13 14 -17 14 -18 -1 -6 -14 10 -17 9 -22 -9 -4 -15
-2 -19 8 -15 10 3 12 0 8 -12 -6 -15 -5 -16 13 -2 14 11 16 11 7 0 -15 -17
-51 -21 -49 -6 1 6 -3 13 -9 16 -5 3 -10 -8 -11 -25 -1 -36 5 -57 16 -50 4 2
18 -7 31 -22 23 -25 23 -25 2 -12 -13 8 -23 17 -23 22 0 4 -5 5 -10 2 -6 -4
-7 -11 -4 -17 4 -7 2 -8 -5 -4 -6 4 -9 11 -6 16 3 5 0 12 -6 16 -8 4 -9 3 -5
-4 11 -18 -10 -14 -28 4 -9 8 -16 11 -16 5 0 -21 4 -26 20 -23 13 2 13 2 0 -7
-8 -5 -11 -14 -6 -18 5 -4 11 -2 13 5 6 17 20 15 27 -4 3 -8 2 -12 -4 -9 -5 3
-19 1 -31 -6 -13 -6 -19 -7 -15 -1 3 6 2 13 -4 17 -5 3 -10 1 -10 -5 0 -6 -4
-9 -9 -5 -5 3 -13 1 -16 -5 -4 -6 -1 -9 7 -8 7 2 12 -5 12 -14 -1 -10 2 -19 7
-19 5 -1 14 -3 19 -4 6 -1 15 -3 20 -4 6 0 10 -6 10 -11 0 -6 -6 -10 -12 -9
-20 3 -48 -12 -48 -26 0 -7 -6 -15 -12 -18 -7 -2 -10 -7 -6 -11 10 -12 50 14
44 29 -3 9 3 12 18 11 15 -2 22 3 23 16 2 19 -29 42 -42 30 -5 -4 -5 -1 -1 6
5 9 12 9 28 1 18 -10 20 -9 14 7 -6 18 -5 18 8 2 15 -21 31 -24 20 -5 -6 10
-4 10 7 0 16 -16 33 -17 23 -1 -5 7 -3 8 6 3 10 -6 9 -11 -5 -22 -17 -12 -13
-18 8 -14 5 1 6 -3 2 -9 -3 -6 -11 -8 -16 -5 -5 4 -15 2 -21 -2 -17 -10 -20
-44 -4 -41 6 2 11 -1 11 -7 0 -5 -6 -9 -12 -7 -18 4 -16 -9 5 -24 16 -13 16
-14 -2 -7 -14 4 -17 3 -12 -6 4 -7 3 -10 -5 -9 -6 2 -14 -3 -17 -11 -2 -8 0
-11 6 -7 6 3 13 2 17 -3 3 -6 -5 -8 -19 -5 -32 5 -50 -23 -31 -49 10 -14 14
-15 24 -4 6 8 9 16 6 19 -3 2 1 5 9 5 12 0 11 -5 -2 -23 -11 -15 -23 -21 -36
-18 -12 4 -16 2 -12 -5 5 -7 1 -8 -9 -4 -13 5 -14 7 -3 14 10 6 10 13 2 26 -8
13 -7 21 6 33 9 8 10 11 3 6 -7 -5 -13 -7 -14 -5 -7 35 -6 40 6 35 9 -3 12 2
10 16 -6 28 -13 34 -27 20 -9 -9 -9 -12 3 -12 9 0 6 -6 -9 -18 -25 -19 -36
-58 -20 -68 7 -5 8 -2 3 6 -5 8 -3 11 6 8 8 -3 14 -18 15 -34 1 -16 3 -36 5
-44 2 -8 -3 -15 -11 -15 -9 0 -14 10 -15 27 0 14 -4 30 -9 35 -5 5 -6 3 -2 -4
9 -16 -6 -17 -21 -2 -9 9 -11 8 -10 -2 2 -8 6 -19 9 -24 4 -6 5 -23 4 -38 -2
-15 1 -27 7 -27 6 0 2 -6 -9 -14 -10 -8 -16 -18 -11 -22 4 -4 7 -2 7 4 0 7 5
12 11 12 8 0 8 -4 0 -14 -7 -8 -22 -13 -33 -11 -11 3 -29 0 -40 -6 -15 -8 -23
-8 -32 1 -8 8 -7 10 6 5 11 -5 16 -1 15 11 -3 23 17 28 36 10 13 -14 16 -14
23 2 11 25 13 72 2 66 -5 -3 -7 -8 -4 -11 8 -8 -13 -43 -25 -43 -6 0 -6 7 1
19 7 14 7 22 0 26 -6 4 -10 3 -9 -2 4 -22 -4 -32 -31 -42 -22 -7 -30 -7 -30 1
0 6 -2 9 -5 7 -8 -9 24 -112 37 -120 11 -7 11 -9 0 -9 -7 0 -19 15 -27 34 -19
46 -33 53 -37 19 -2 -22 -8 -27 -33 -28 -17 -1 -37 -5 -45 -10 -19 -12 -60
-13 -60 -1 0 16 -14 -3 -17 -24 -3 -24 15 -36 30 -20 9 10 9 11 0 6 -6 -3 -14
-2 -17 3 -8 12 20 22 39 15 13 -5 11 -10 -7 -25 -13 -10 -29 -23 -36 -29 -7
-6 -9 -17 -6 -23 4 -7 3 -8 -2 -4 -4 4 -9 20 -9 35 0 16 -6 26 -13 25 -16 -4
-16 14 1 21 6 4 2 4 -11 2 -12 -2 -20 0 -16 5 3 5 12 9 20 9 8 0 14 3 15 8 0
4 2 14 4 22 4 20 -49 24 -65 5 -13 -15 -35 -21 -26 -7 2 4 -26 9 -62 11 -37 1
-72 7 -79 13 -7 6 -20 8 -28 4 -14 -5 -55 29 -55 46 0 5 -5 6 -10 3 -6 -4 -13
7 -16 25 -4 17 -11 33 -15 36 -13 8 -11 42 2 46 7 2 4 10 -7 18 -14 12 -16 12
-9 1 5 -9 4 -12 -3 -7 -6 3 -14 2 -17 -4 -5 -8 -11 -7 -21 1 -7 6 -11 15 -8
21 4 5 10 5 17 -1 8 -6 18 -1 32 17 11 16 13 22 4 15 -13 -10 -16 -10 -16 2 0
7 3 14 6 13 22 -2 31 5 31 22 0 12 12 33 27 48 16 15 29 38 29 52 3 39 3 40
18 40 20 0 46 44 46 77 0 16 7 38 15 51 13 17 13 21 2 16 -15 -5 -17 30 -2 43
4 5 5 3 1 -4 -3 -6 -2 -14 3 -18 10 -6 7 27 -4 44 -3 5 0 13 6 17 8 5 9 3 4
-7 -6 -11 -5 -11 5 -2 13 12 5 37 -9 29 -4 -3 -8 1 -8 9 0 8 5 11 10 8 6 -4 8
3 5 15 -4 12 -3 20 2 17 7 -4 12 18 24 105 2 18 8 24 22 22 17 -2 19 4 19 39
0 22 4 43 9 46 5 4 6 1 1 -7 -5 -9 -4 -11 4 -6 7 5 8 13 3 23 -13 23 14 74 36
67 10 -4 13 -3 6 3 -19 14 -13 44 8 37 13 -4 18 0 18 15 0 11 5 23 11 27 8 4
7 9 -2 15 -11 6 -11 11 -2 20 6 6 9 18 6 26 -4 10 0 14 14 11 21 -3 23 0 23
30 0 15 -2 15 -11 2 -9 -13 -10 -13 -6 0 2 8 10 15 18 15 8 0 14 9 14 20 1 12
6 19 15 16 43 -11 59 -9 52 7 -3 10 -7 12 -10 4 -2 -7 -8 -12 -14 -12 -6 0 -6
6 2 15 6 8 9 18 6 23 -3 5 4 9 16 8 12 0 23 -7 24 -14 1 -7 0 -8 -3 -2 -6 12
-23 13 -23 1 0 -19 28 -18 45 1 15 18 15 20 1 15 -9 -4 -16 -2 -16 3 0 12 38
23 82 25 20 0 40 4 43 7 4 3 -12 5 -35 3 -32 -3 -40 -1 -31 8 14 14 14 27 1
27 -6 0 -15 -10 -20 -22 -7 -18 -9 -19 -9 -5 -1 9 -7 17 -13 17 -9 0 -8 3 2 9
8 6 17 8 21 5 4 -2 10 3 13 12 4 9 9 14 13 11 9 -9 34 13 27 24 -3 5 -7 21
-10 34 -4 23 -3 24 15 13 13 -8 16 -15 10 -19 -6 -4 -7 -9 -3 -12 5 -3 15 1
22 9 7 8 9 14 4 14 -9 0 -25 46 -37 104 -3 16 -14 30 -25 33 -11 3 -20 12 -20
19 0 8 -4 14 -10 14 -5 0 -10 -9 -10 -20 0 -27 -18 -25 -22 3 -4 29 -68 39
-68 10 0 -13 -5 -10 -20 12 -11 17 -20 38 -20 48 0 10 -4 15 -10 12 -6 -4 -10
8 -10 29 0 31 3 36 23 36 12 0 29 5 37 10 11 7 5 10 -22 10 -24 0 -38 5 -38
13 0 9 -2 9 -8 -1 -7 -10 -13 -8 -26 7 -11 12 -13 21 -7 25 13 8 -4 51 -32 83
-15 17 -18 31 -14 61 5 31 2 43 -14 60 -11 12 -29 22 -40 22 -11 0 -22 6 -25
14 -3 8 -12 12 -20 9 -10 -4 -14 3 -14 26 0 37 -38 109 -60 116 -9 3 -40 29
-70 57 -76 73 -113 91 -167 83 -35 -5 -43 -3 -43 9 0 14 -10 18 -72 31 -23 4
-34 -13 -14 -21 9 -3 16 -11 16 -16 0 -6 17 -44 37 -85 23 -46 33 -77 27 -81
-17 -11 -25 -42 -11 -42 9 0 9 -2 0 -8 -19 -12 -36 -99 -29 -145 19 -113 22
-137 15 -137 -5 0 -13 8 -18 18 -12 19 -13 14 -12 -53 l0 -40 -10 40 c-5 22
-14 44 -19 49 -6 6 -10 19 -10 31 0 11 -4 26 -8 32 -10 16 -8 -79 2 -129 5
-21 6 -38 3 -38 -3 0 -11 25 -17 55 -14 69 -29 80 -24 17 l4 -47 -10 39 c-13
49 -25 63 -17 19 7 -36 -5 -44 -23 -15 -10 14 -11 14 -6 0 2 -9 2 -19 -2 -23
-3 -3 -17 17 -29 46 -13 29 -26 49 -30 46 -3 -4 -1 -18 7 -31 7 -13 11 -40 8
-59 -2 -20 -1 -34 2 -32 3 2 6 -19 7 -46 1 -26 -2 -51 -7 -54 -6 -4 -10 1 -10
10 0 9 -4 14 -9 11 -4 -3 -6 6 -3 19 5 29 -40 89 -69 91 -10 1 -25 9 -35 18
-9 9 -29 20 -45 23 -16 3 -26 9 -23 14 3 5 -3 9 -13 9 -10 0 -30 11 -43 26
-14 14 -41 41 -60 60 -33 33 -33 35 -10 29 14 -4 33 -16 43 -26 10 -11 22 -20
27 -20 6 -1 14 -2 19 -3 5 0 13 -4 17 -8 19 -20 23 -5 5 18 -12 15 -21 34 -21
42 0 13 3 12 16 -4 8 -10 12 -13 8 -5 -3 7 -1 31 6 52 12 35 11 42 -4 57 -16
16 -17 15 -10 -27 5 -30 4 -42 -3 -38 -17 11 -25 58 -13 73 8 8 9 25 4 46 -4
18 -6 46 -5 62 l2 30 -23 -20 -23 -19 23 26 23 26 -32 32 c-18 18 -35 29 -38
24 -3 -4 -14 -9 -23 -9 -13 -1 -18 5 -18 22 0 26 -16 41 -23 22 -4 -10 -6 -10
-6 0 -1 6 -6 12 -12 12 -8 0 -8 -5 1 -15 7 -8 16 -12 21 -9 11 6 11 -7 1 -23
-6 -9 -12 -7 -25 7 -9 11 -24 20 -32 20 -9 0 -13 5 -10 10 7 12 12 11 -90 16
-118 6 -122 8 -90 34 23 19 18 28 -12 24 -25 -4 -24 -3 7 11 81 36 78 34 48
34 -15 1 -29 5 -32 9 -2 4 -17 9 -33 10 -42 4 -57 7 -70 15 -7 4 -46 5 -88 1
-47 -4 -75 -3 -75 3 0 25 245 8 278 -19 7 -6 15 -8 19 -4 3 3 1 6 -6 6 -7 0
-9 5 -6 10 3 6 13 10 21 10 8 0 13 -4 10 -8 -2 -4 11 -6 31 -4 l35 4 -44 26
c-24 15 -60 27 -83 28 -22 1 -58 7 -80 12 -31 8 -50 8 -78 -2 -20 -7 -35 -15
-33 -17 3 -3 -3 -5 -12 -5 -9 -1 -42 -4 -72 -8 -46 -6 -52 -5 -39 6 9 7 14 19
11 27 -5 14 45 60 66 61 7 0 11 4 8 9 -8 12 57 23 88 15 16 -4 26 -2 26 5 0 6
7 11 15 11 8 0 15 -5 15 -11 0 -6 9 -8 21 -4 15 5 19 4 15 -4 -4 -6 -2 -11 3
-11 6 0 11 -5 11 -11 0 -5 -5 -7 -11 -3 -13 8 -142 12 -149 5 -13 -14 -70 -51
-80 -51 -14 0 -13 -17 3 -23 15 -5 58 13 72 30 17 22 108 32 185 20 l45 -7
-30 15 c-27 14 -28 15 -5 11 38 -6 69 -14 78 -20 4 -2 9 4 9 15 1 10 -3 19 -8
19 -6 0 -8 4 -4 10 3 5 11 8 18 6 7 -1 9 -1 4 1 -4 3 -5 8 -2 12 2 5 -20 16
-50 27 -30 10 -55 22 -55 26 0 4 -12 8 -27 9 l-28 0 24 10 c25 10 81 3 81 -9
0 -4 17 -7 38 -8 l37 -1 -35 16 c-21 9 -63 16 -107 16 -44 0 -72 4 -70 10 2 6
31 10 65 10 34 0 62 3 62 8 0 4 -8 7 -17 7 -10 0 -27 7 -37 15 -26 20 -100 18
-155 -3 -52 -20 -70 -47 -24 -36 l28 7 -25 -26 c-14 -15 -36 -27 -50 -28 -23
-1 -22 -2 5 -8 29 -6 28 -7 -25 -23 -30 -10 -68 -20 -85 -23 -27 -6 -28 -5
-12 8 21 18 22 27 1 27 -9 0 -25 12 -36 26 -11 14 -26 23 -33 20 -14 -5 -54
19 -73 46 -7 10 -19 18 -25 18 -7 0 -41 25 -77 55 -36 30 -80 63 -98 72 -29
15 -34 15 -42 3 -6 -9 -6 -16 0 -18 6 -2 8 -8 5 -12 -7 -11 -33 -2 -64 22 -13
10 -32 18 -42 18 -11 0 -19 5 -19 10 0 6 -9 10 -21 10 -29 0 -77 36 -82 63 -4
19 -4 19 -5 2z m842 -284 c3 -5 -1 -11 -9 -14 -9 -4 -12 -1 -8 9 6 16 10 17
17 5z m24 -29 c-11 -8 -22 -11 -25 -8 -3 3 1 8 10 12 10 3 13 12 9 22 -5 14
-4 15 10 2 14 -13 14 -16 -4 -28z m-193 -62 c-3 -5 -12 -10 -18 -10 -7 0 -6 4
3 10 19 12 23 12 15 0z m60 -10 c-3 -5 -12 -10 -18 -10 -7 0 -6 4 3 10 19 12
23 12 15 0z m-222 -47 c3 -5 -6 -9 -19 -9 -13 -1 -21 2 -18 7 6 11 31 12 37 2z
m157 -37 c0 -2 -8 -10 -17 -17 -16 -13 -17 -12 -4 4 13 16 21 21 21 13z m20
-55 c0 -5 -7 -12 -16 -15 -8 -3 -12 -10 -9 -16 3 -6 -1 -7 -9 -4 -9 3 -16 2
-16 -4 0 -10 -41 -25 -77 -27 -12 0 -19 3 -16 8 3 4 12 6 20 3 14 -6 52 14 87
46 22 20 36 23 36 9z m106 -37 c-21 -7 -43 -10 -50 -6 -6 4 4 10 24 13 58 11
67 8 26 -7z m-51 -34 c3 -5 -1 -10 -10 -10 -9 0 -13 5 -10 10 3 6 8 10 10 10
2 0 7 -4 10 -10z m-147 -17 c-10 -2 -28 -2 -40 0 -13 2 -5 4 17 4 22 1 32 -1
23 -4z m-15 -40 c-7 -2 -19 -2 -25 0 -7 3 -2 5 12 5 14 0 19 -2 13 -5z m-146
-19 c-3 -3 -12 -4 -19 -1 -8 3 -5 6 6 6 11 1 17 -2 13 -5z m280 0 c-3 -3 -12
-4 -19 -1 -8 3 -5 6 6 6 11 1 17 -2 13 -5z m-367 -29 c-7 -8 -18 -15 -24 -15
-6 0 -2 7 8 15 25 19 32 19 16 0z m535 -5 c-33 -22 -45 -25 -45 -11 0 5 12 14
28 19 43 16 49 13 17 -8z m315 -70 c0 -15 -5 -12 -26 11 -19 22 -19 22 4 10
12 -6 22 -16 22 -21z m-917 -12 c-13 -12 -25 -19 -29 -16 -9 9 18 37 36 38 10
0 8 -6 -7 -22z m967 -10 c0 -6 -6 -5 -15 2 -8 7 -15 14 -15 16 0 2 7 1 15 -2
8 -4 15 -11 15 -16z m-1013 -8 l25 -19 -35 4 c-28 4 -37 1 -40 -13 -4 -14 -5
-13 -6 4 -1 17 15 44 27 44 2 0 15 -9 29 -20z m604 -38 c-5 -9 -19 -26 -30
-36 -29 -26 -28 0 1 31 25 27 43 30 29 5z m469 4 c0 -2 -8 -10 -17 -17 -16
-13 -17 -12 -4 4 13 16 21 21 21 13z m30 -51 c0 -9 -6 -12 -15 -9 -8 4 -15 10
-15 15 0 5 7 9 15 9 8 0 15 -7 15 -15z m-494 -102 c-13 -24 -15 -25 -16 -7 0
11 5 25 12 32 19 19 21 6 4 -25z m334 -22 c0 -5 -7 -11 -14 -14 -10 -4 -13 -1
-9 9 6 15 23 19 23 5z m-234 -19 c13 -8 46 -83 40 -89 -2 -3 -12 10 -22 27
-17 28 -20 29 -32 13 -11 -16 -14 -16 -22 -3 -6 9 -6 16 0 18 6 2 10 12 10 23
0 20 8 23 26 11z m-819 -34 c-3 -7 -5 -2 -5 12 0 14 2 19 5 13 2 -7 2 -19 0
-25z m1050 -10 c-3 -7 -5 -2 -5 12 0 14 2 19 5 13 2 -7 2 -19 0 -25z m-741
-14 c13 -1 31 -10 40 -18 14 -15 13 -16 -6 -16 -35 0 -90 28 -90 46 0 14 3 14
16 4 8 -8 26 -15 40 -16z m666 -43 c-8 -4 -10 -15 -6 -26 5 -12 4 -16 -3 -12
-6 4 -13 15 -15 25 -4 13 1 18 16 20 14 1 16 -2 8 -7z m107 -33 c2 22 21 13
21 -10 0 -18 2 -20 10 -8 15 24 18 7 4 -25 -7 -17 -13 -23 -14 -13 0 9 -9 20
-20 23 -16 5 -20 15 -19 43 l1 37 8 -30 c4 -16 8 -24 9 -17z m1122 -189 c-11
-13 -21 -18 -21 -11 0 6 5 14 10 17 6 3 10 18 11 33 0 26 1 26 11 5 8 -17 6
-26 -11 -44z m59 -39 c0 -5 -2 -10 -4 -10 -3 0 -8 5 -11 10 -3 6 -1 10 4 10 6
0 11 -4 11 -10z m174 -186 c2 -10 6 -25 8 -33 2 -9 -8 -14 -30 -16 -19 -1 -38
-8 -43 -16 -8 -13 -9 -12 -9 18 0 4 8 8 17 8 9 0 18 6 21 14 3 8 0 11 -7 7 -6
-4 -11 -2 -11 3 0 11 11 14 40 12 10 0 11 1 3 5 -7 3 -13 13 -13 22 0 21 19 3
24 -24z m-34 16 c0 -5 -2 -10 -4 -10 -3 0 -8 5 -11 10 -3 6 -1 10 4 10 6 0 11
-4 11 -10z m-190 -226 c0 -8 -19 -13 -24 -6 -3 5 1 9 9 9 8 0 15 -2 15 -3z
m-947 -329 c-3 -9 -8 -14 -10 -11 -3 3 -2 9 2 15 9 16 15 13 8 -4z m1464 -391
c-3 -3 -12 -4 -19 -1 -8 3 -5 6 6 6 11 1 17 -2 13 -5z m74 -31 c13 -16 12 -17
-3 -4 -10 7 -18 15 -18 17 0 8 8 3 21 -13z m-195 -242 c0 -11 -6 -17 -13 -14
-6 3 -9 11 -6 19 7 20 19 17 19 -5z m116 -93 c-7 -7 -12 -8 -12 -2 0 14 12 26
19 19 2 -3 -1 -11 -7 -17z m-35 -43 c0 -8 -3 -12 -7 -10 -11 7 -33 -42 -26
-54 4 -6 3 -11 -3 -11 -20 0 -17 26 7 58 28 37 29 37 29 17z m43 1 c0 -3 -4
-8 -10 -11 -5 -3 -10 -1 -10 4 0 6 5 11 10 11 6 0 10 -2 10 -4z m-143 -61 c0
-8 -4 -12 -9 -9 -5 3 -6 10 -3 15 9 13 12 11 12 -6z m-52 -45 c-3 -5 -13 -6
-21 -3 -12 4 -13 8 -3 14 15 9 32 2 24 -11z m75 10 c-8 -5 -10 -10 -5 -10 13
0 -66 -49 -80 -50 -5 0 6 10 25 21 19 12 39 28 43 35 4 8 13 14 20 14 7 0 6
-4 -3 -10z m-386 -9 c17 -6 15 -10 -15 -27 -28 -16 -39 -18 -66 -9 -43 14 -52
25 -21 25 13 0 28 -3 32 -7 13 -13 38 -12 32 2 -9 23 5 29 38 16z m266 -11 c8
-15 8 -18 -3 -14 -8 3 -14 11 -14 19 0 20 4 19 17 -5z m-126 -71 c-18 -20 -18
-20 10 -13 21 5 27 4 22 -5 -10 -15 3 -13 34 4 37 21 43 18 18 -7 -13 -13 -36
-24 -52 -24 -20 -1 -24 1 -15 7 8 5 10 9 4 10 -5 1 -14 2 -20 4 -5 1 -14 3
-19 3 -9 2 22 42 32 42 3 0 -3 -9 -14 -21z m-79 -38 c3 -5 2 -12 -3 -15 -5 -3
-9 1 -9 9 0 17 3 19 12 6z m70 -10 c3 -5 2 -12 -3 -15 -5 -3 -9 1 -9 9 0 17 3
19 12 6z m-25 -25 c0 -3 -4 -8 -10 -11 -5 -3 -10 -1 -10 4 0 6 5 11 10 11 6 0
10 -2 10 -4z m-30 -26 c0 -5 -6 -10 -14 -10 -8 0 -23 -3 -33 -6 -10 -3 -7 2 7
10 30 18 40 20 40 6z m150 -20 c-8 -5 -19 -10 -25 -10 -5 0 -3 5 5 10 8 5 20
10 25 10 6 0 3 -5 -5 -10z m-574 -62 l29 -33 -32 29 c-31 28 -38 36 -30 36 2
0 16 -15 33 -32z m314 18 c0 -2 -7 -6 -15 -10 -8 -3 -15 -1 -15 4 0 6 7 10 15
10 8 0 15 -2 15 -4z m-40 -13 c0 -5 -12 -14 -28 -20 l-27 -13 24 20 c25 22 31
24 31 13z m-167 -184 c-6 -6 -10 -17 -7 -23 2 -6 -7 -16 -21 -23 -14 -6 -25
-7 -25 -2 0 13 42 58 55 58 5 1 4 -4 -2 -10z"/>
<path d="M10424 4061 c0 -9 8 -17 17 -17 18 0 15 22 -5 29 -6 3 -12 -3 -12
-12z"/>
<path d="M9391 5551 c-23 -23 -47 -41 -53 -41 -24 -1 -78 -77 -78 -110 0 -31
-1 -31 -37 -27 l-37 5 24 -18 c13 -10 28 -17 31 -14 8 5 90 -61 102 -82 12
-21 67 -14 67 8 0 10 7 21 15 24 22 9 18 41 -10 78 -31 40 -31 49 -2 61 14 7
24 22 28 45 l5 35 8 -28 c5 -15 6 -41 2 -57 -3 -17 -1 -30 4 -30 6 0 10 9 10
20 0 12 5 17 13 14 15 -5 62 42 71 71 9 32 -32 73 -80 81 -39 6 -44 4 -83 -35z
m-21 -271 c0 -5 -5 -10 -11 -10 -5 0 -7 5 -4 10 3 6 8 10 11 10 2 0 4 -4 4
-10z"/>
<path d="M5616 5569 c-2 -8 -7 -25 -10 -39 -15 -69 -31 -120 -38 -120 -5 0 -8
-18 -8 -41 0 -23 -4 -38 -9 -34 -6 3 -15 -4 -22 -16 -9 -18 -8 -24 5 -31 21
-12 20 -36 -3 -75 -15 -24 -28 -32 -53 -35 -21 -2 -33 -8 -33 -18 0 -10 8 -14
24 -12 13 1 29 -2 36 -8 18 -15 61 65 86 161 25 96 48 339 25 268z"/>
<path d="M3515 5495 c14 -35 44 -198 45 -242 0 -24 14 -75 35 -125 20 -46 38
-96 41 -113 9 -53 14 -39 8 26 -10 101 -61 354 -82 401 -19 45 -65 95 -47 53z"/>
<path d="M5538 5476 c-20 -14 -24 -36 -8 -36 6 0 10 -10 10 -22 0 -34 20 -8
27 35 6 39 -1 45 -29 23z"/>
<path d="M4510 5446 c0 -7 80 -102 135 -162 6 -6 28 -32 50 -59 59 -71 226
-249 258 -274 16 -13 17 -12 8 11 -5 14 -8 29 -5 32 2 3 1 4 -3 1 -7 -5 -26
11 -113 96 -45 44 -83 85 -195 214 -93 108 -134 151 -135 141z"/>
<path d="M8555 5411 c-6 -11 9 -23 19 -14 9 9 7 23 -3 23 -6 0 -12 -4 -16 -9z"/>
<path d="M7066 5394 c-7 -18 0 -34 15 -34 5 0 9 11 9 25 0 28 -15 34 -24 9z"/>
<path d="M5210 5341 c0 -6 -12 -11 -26 -11 -24 0 -25 -2 -19 -32 4 -18 13 -46
21 -62 13 -27 12 -32 -18 -80 -44 -69 -87 -116 -105 -116 -8 0 -11 -5 -7 -11
3 -6 2 -14 -4 -18 -19 -12 -17 -134 3 -164 19 -29 35 -35 35 -13 0 8 24 84 54
168 97 273 113 340 84 346 -10 2 -18 -1 -18 -7z"/>
<path d="M7310 5340 c0 -5 4 -10 9 -10 6 0 13 5 16 10 3 6 -1 10 -9 10 -9 0
-16 -4 -16 -10z"/>
<path d="M7297 5303 c-4 -3 -7 -17 -7 -29 0 -13 -4 -25 -10 -29 -15 -9 0 -35
22 -35 16 0 18 4 12 23 -5 12 -8 34 -9 50 0 15 0 27 -1 27 0 0 -4 -3 -7 -7z"/>
<path d="M7637 5263 c-40 -61 -72 -92 -107 -104 -34 -12 -24 -31 11 -22 19 5
97 91 118 131 21 40 4 36 -22 -5z"/>
<path d="M9130 5280 c8 -5 22 -9 30 -9 10 0 8 3 -5 9 -27 12 -43 12 -25 0z"/>
<path d="M9015 5255 c-16 -8 -23 -14 -14 -15 8 0 24 7 35 15 23 18 18 18 -21
0z"/>
<path d="M9090 5170 c0 -5 5 -10 10 -10 6 0 10 5 10 10 0 6 -4 10 -10 10 -5 0
-10 -4 -10 -10z"/>
<path d="M7760 5105 c-34 -34 -68 -59 -90 -65 -20 -5 -47 -20 -60 -32 l-23
-22 21 -9 c12 -6 22 -16 22 -22 0 -18 26 -37 69 -52 48 -17 69 -17 53 -1 -20
20 -14 28 24 28 28 0 46 9 78 38 23 20 56 49 74 65 19 15 32 32 30 37 -2 6
-28 -10 -58 -35 -30 -25 -61 -45 -67 -45 -7 0 -13 -5 -13 -11 0 -5 -4 -7 -10
-4 -11 7 -53 -19 -45 -27 3 -3 -8 -8 -25 -11 -20 -4 -41 -1 -62 11 -40 23 -46
40 -16 51 28 11 118 95 141 134 10 15 16 27 14 27 -1 0 -27 -25 -57 -55z"/>
<path d="M9060 5150 c0 -13 41 -50 55 -50 8 0 15 -4 15 -9 0 -14 142 -102 157
-97 7 3 13 14 13 25 0 12 11 26 27 34 l27 14 -23 8 c-13 4 -26 3 -30 -1 -12
-18 -41 -15 -41 3 0 10 -12 30 -28 44 -23 22 -39 27 -100 31 -39 2 -72 1 -72
-2z"/>
<path d="M9424 5144 c3 -9 6 -18 6 -20 0 -2 11 -4 25 -4 27 0 32 9 13 28 -18
18 -51 15 -44 -4z"/>
<path d="M5644 5098 c-16 -24 -63 -113 -74 -138 -6 -14 -32 -70 -59 -125 -27
-55 -46 -104 -43 -108 2 -5 24 10 47 33 24 23 45 41 48 39 3 -2 9 0 14 5 4 5
3 6 -4 2 -26 -14 -18 11 12 42 28 27 32 29 31 12 0 -11 4 -19 9 -19 6 1 9 6 7
11 -2 6 5 8 15 4 17 -6 17 -5 -1 8 -10 9 -15 20 -10 27 4 8 3 10 -4 5 -22 -13
-12 22 14 53 19 23 24 38 20 56 -4 14 -2 34 4 45 14 25 -12 71 -26 48z"/>
<path d="M9442 5083 c1 -16 8 -34 15 -41 7 -7 13 -21 13 -30 -1 -13 -4 -11
-14 6 -12 23 -13 22 -14 -17 -1 -30 2 -39 11 -35 8 3 25 -12 41 -36 14 -22 29
-40 32 -40 4 0 -1 11 -10 24 -8 14 -12 26 -7 28 4 2 10 19 14 38 3 19 3 30 1
23 -12 -29 -66 50 -59 86 2 13 -1 21 -10 21 -10 0 -14 -9 -13 -27z"/>
<path d="M9516 5073 c-6 -14 -5 -15 5 -6 7 7 10 15 7 18 -3 3 -9 -2 -12 -12z"/>
<path d="M9373 5063 c-7 -2 -13 -11 -13 -18 0 -7 -7 -15 -15 -19 -8 -3 -15 -1
-15 5 0 6 -4 7 -10 4 -15 -9 -12 -25 5 -25 8 0 12 -6 9 -14 -3 -9 -12 -12 -22
-8 -15 5 -15 4 -3 -12 11 -13 16 -14 22 -4 4 7 11 9 16 4 4 -4 0 -12 -10 -17
-17 -10 -24 -30 -9 -28 19 3 33 -2 28 -10 -3 -5 1 -14 9 -21 10 -8 13 -21 9
-33 -4 -12 -2 -17 5 -13 6 4 4 -9 -4 -28 -19 -45 -19 -60 0 -52 18 7 19 4 1
-38 -12 -29 -12 -35 5 -57 10 -13 19 -20 19 -16 0 4 11 -4 23 -19 15 -17 28
-24 36 -19 7 4 9 10 5 14 -20 14 -34 50 -22 57 7 5 8 3 3 -6 -6 -10 -4 -12 8
-7 9 3 16 3 15 -1 -2 -9 32 -122 37 -122 2 0 1 18 -2 40 -4 30 -2 40 8 40 11
0 11 2 -1 10 -8 5 -10 10 -5 10 6 0 3 5 -5 10 -8 5 -10 10 -4 10 7 0 7 20 1
63 -11 80 -36 167 -48 167 -5 0 -8 3 -8 8 3 17 -2 28 -24 54 l-24 27 -14 -25
c-12 -23 -14 -24 -20 -7 -4 10 -2 24 4 31 5 7 7 15 3 19 -3 3 1 17 9 30 9 13
14 23 13 22 -2 0 -9 -3 -15 -6z m96 -263 c-1 -19 -3 -29 -6 -22 -4 10 -8 10
-20 0 -18 -15 -43 -19 -43 -8 0 4 7 10 15 14 8 3 15 10 15 16 0 6 -6 8 -12 4
-9 -5 -9 -2 1 9 15 19 26 23 15 5 -5 -7 -3 -8 5 -4 7 5 10 15 7 23 -3 8 -3 20
1 26 9 15 22 -20 22 -63z"/>
<path d="M7018 5043 c7 -3 16 -2 19 1 4 3 -2 6 -13 5 -11 0 -14 -3 -6 -6z"/>
<path d="M8935 5030 c11 -5 27 -9 35 -9 13 -1 13 0 0 9 -8 5 -24 9 -35 9 l-20
0 20 -9z"/>
<path d="M9037 5029 c7 -7 15 -10 18 -7 3 3 -2 9 -12 12 -14 6 -15 5 -6 -5z"/>
<path d="M3588 4958 c3 -39 -1 -96 -8 -126 -11 -50 -14 -53 -36 -48 -24 6 -26
2 -26 -54 0 -3 3 -22 6 -43 l7 -39 -25 19 c-14 10 -24 23 -21 30 2 7 -2 10 -9
7 -6 -2 -32 10 -57 28 -95 71 -157 112 -182 121 -35 13 -7 -11 132 -112 77
-56 158 -122 180 -147 37 -43 39 -46 38 -114 -1 -39 -5 -70 -10 -70 -5 0 -6
-15 -3 -32 9 -49 -10 -218 -28 -253 -9 -16 -16 -53 -16 -80 0 -28 -7 -60 -15
-71 -8 -12 -24 -57 -35 -100 -12 -43 -26 -96 -31 -118 l-10 -38 -27 24 c-28
25 -94 59 -151 77 -58 19 -44 5 26 -24 37 -16 81 -41 99 -57 30 -27 31 -30 23
-71 -5 -23 -16 -59 -24 -80 -8 -20 -15 -56 -15 -78 0 -22 -4 -38 -9 -35 -12 8
-22 -20 -15 -39 4 -8 12 -15 19 -15 14 0 48 -58 40 -70 -7 -11 175 27 219 46
23 10 59 33 81 50 22 18 65 39 95 47 30 9 78 22 107 30 73 21 157 83 239 179
66 78 154 203 154 219 0 5 -19 9 -42 11 -33 2 -45 8 -53 26 -12 27 -25 29 -25
2 0 -27 -28 -25 -32 2 -2 14 -12 25 -28 28 -14 4 -24 12 -23 18 3 14 -32 25
-57 17 -14 -4 -20 -2 -20 9 0 24 28 33 105 35 39 1 115 5 169 10 94 8 101 10
128 40 25 28 28 29 28 10 0 -21 1 -21 28 -3 48 31 64 68 24 58 -9 -3 -27 4
-39 15 -23 22 -220 77 -231 66 -4 -4 -11 -25 -17 -48 -11 -43 -15 -46 -110
-64 -16 -3 -39 -12 -50 -19 -15 -10 -34 -11 -65 -6 -41 7 -45 10 -48 40 -3 27
5 41 48 86 78 83 58 112 -58 86 -51 -11 -55 -10 -110 20 -31 18 -58 34 -60 35
-6 5 27 70 47 92 22 26 77 51 166 77 33 10 80 24 105 32 84 25 236 64 250 65
8 0 35 10 59 22 31 15 45 29 48 46 3 21 1 23 -29 17 -18 -3 -64 -8 -103 -12
-38 -3 -77 -10 -87 -15 -9 -5 -29 -9 -45 -9 -37 -1 -116 -22 -134 -36 -8 -6
-30 -14 -49 -17 -50 -7 -163 -62 -197 -95 -15 -15 -38 -41 -50 -57 -28 -37
-35 -28 -52 63 -7 37 -19 74 -27 84 -12 12 -15 42 -15 125 0 85 -4 121 -21
168 -33 94 -44 97 -40 13z m780 -795 c-4 -32 -50 -50 -69 -27 -17 20 -4 42 28
47 15 2 32 5 36 6 5 0 7 -11 5 -26z m-193 -33 c-3 -5 -10 -10 -16 -10 -5 0 -9
5 -9 10 0 6 7 10 16 10 8 0 12 -4 9 -10z"/>
<path d="M7210 5016 c0 -2 8 -10 18 -17 15 -13 16 -12 3 4 -13 16 -21 21 -21
13z"/>
<path d="M5689 4963 c-13 -16 -12 -17 4 -4 16 13 21 21 13 21 -2 0 -10 -8 -17
-17z"/>
<path d="M9600 4960 c0 -19 3 -21 12 -12 9 9 9 15 0 24 -9 9 -12 7 -12 -12z"/>
<path d="M4829 4946 c-22 -16 -32 -73 -14 -80 11 -4 11 -11 3 -34 -10 -25 -7
-34 26 -81 26 -39 36 -64 36 -93 l0 -40 -42 3 c-24 2 -58 9 -76 16 -44 18
-161 15 -184 -4 -13 -11 -21 -12 -37 -3 -19 10 -25 7 -22 -12 0 -5 -8 -8 -19
-8 -11 0 -23 -6 -26 -13 -3 -8 -32 -31 -64 -52 -33 -21 -60 -42 -60 -47 0 -4
-9 -8 -20 -8 -16 0 -20 -7 -20 -30 0 -23 -4 -30 -20 -30 -13 0 -20 -7 -20 -18
0 -10 -5 -23 -11 -29 -9 -9 -3 -10 22 -6 19 2 36 9 37 14 2 5 12 9 21 9 10 0
29 8 42 18 15 12 50 22 88 26 36 3 68 11 71 16 4 6 24 13 46 17 21 3 44 10 51
15 9 7 15 0 22 -24 l11 -33 -5 34 -5 34 22 -19 c12 -10 18 -13 14 -6 -4 6 -4
12 1 12 4 0 14 12 20 28 24 53 105 79 147 47 10 -8 28 -34 40 -59 l22 -46 62
145 c34 79 62 149 62 156 0 22 -117 126 -149 132 -24 5 -31 12 -31 31 0 28
-19 39 -41 22z"/>
<path d="M9456 4937 c3 -10 9 -15 12 -12 3 3 0 11 -7 18 -10 9 -11 8 -5 -6z"/>
<path d="M9310 4910 c0 -5 5 -10 11 -10 5 0 7 5 4 10 -3 6 -8 10 -11 10 -2 0
-4 -4 -4 -10z"/>
<path d="M12540 4896 l-85 -11 118 -24 c65 -13 120 -21 123 -18 3 2 6 17 7 33
2 27 0 29 -38 30 -22 1 -78 -3 -125 -10z"/>
<path d="M9310 4879 c0 -5 4 -8 9 -4 5 3 12 -4 16 -15 4 -11 10 -18 15 -15 5
3 11 -1 13 -7 4 -10 6 -10 6 0 1 7 -6 15 -14 18 -8 4 -15 12 -15 20 0 8 -7 14
-15 14 -8 0 -15 -5 -15 -11z"/>
<path d="M9631 4855 c0 -16 4 -39 9 -50 7 -17 9 -16 9 10 0 17 -4 39 -9 50 -7
17 -9 16 -9 -10z"/>
<path d="M9270 4834 c0 -6 7 -19 16 -30 14 -18 14 -18 3 6 -14 31 -19 36 -19
24z"/>
<path d="M5595 4820 c-3 -5 -1 -10 4 -10 6 0 11 5 11 10 0 6 -2 10 -4 10 -3 0
-8 -4 -11 -10z"/>
<path d="M9340 4803 c0 -21 3 -24 9 -14 5 8 7 20 4 28 -8 21 -13 15 -13 -14z"/>
<path d="M5516 4750 c-21 -22 -33 -40 -26 -40 8 0 10 -3 7 -6 -4 -4 -13 -2
-20 5 -11 9 -17 7 -28 -6 -12 -16 -12 -17 1 -8 9 6 6 1 -5 -10 -12 -11 -32
-41 -45 -67 -31 -60 -80 -117 -86 -101 -4 8 -11 9 -22 3 -9 -5 -30 -11 -45
-15 -24 -5 -27 -8 -16 -21 6 -8 9 -18 5 -22 -4 -4 -13 1 -20 11 -7 9 -17 17
-21 17 -5 0 0 -9 10 -20 18 -19 17 -21 -29 -61 -25 -22 -46 -47 -46 -54 0 -8
17 -30 37 -50 40 -39 49 -39 115 -2 22 12 41 32 47 49 6 15 17 28 26 28 9 0
24 18 35 44 10 25 28 50 39 56 12 6 21 15 21 21 0 5 18 37 40 70 22 33 43 72
46 87 4 15 13 37 21 50 8 13 12 30 9 37 -3 8 0 12 7 9 8 -3 13 4 13 15 0 14
-4 17 -12 10 -8 -7 -13 -6 -16 1 -1 5 -20 -8 -42 -30z"/>
<path d="M9558 4728 c-6 -32 6 -58 15 -34 4 9 3 26 -2 38 -8 21 -8 21 -13 -4z"/>
<path d="M9330 4725 c0 -7 5 -17 10 -20 6 -3 10 -15 10 -26 0 -10 4 -19 9 -19
10 0 9 25 -1 36 -4 3 -4 12 -2 19 3 7 -2 15 -10 18 -10 4 -16 1 -16 -8z"/>
<path d="M9571 4654 c0 -11 3 -14 6 -6 3 7 2 16 -1 19 -3 4 -6 -2 -5 -13z"/>
<path d="M9591 4644 c0 -11 3 -14 6 -6 3 7 2 16 -1 19 -3 4 -6 -2 -5 -13z"/>
<path d="M9610 4641 c0 -11 4 -22 9 -25 4 -3 6 6 3 19 -5 30 -12 33 -12 6z"/>
<path d="M9290 4601 c0 -11 7 -26 15 -35 18 -18 20 -40 3 -29 -7 4 6 -12 30
-35 24 -23 45 -42 48 -42 7 0 -13 36 -30 52 -8 8 -23 36 -35 61 -23 51 -31 58
-31 28z"/>
<path d="M7810 4510 c0 -5 5 -10 11 -10 5 0 7 5 4 10 -3 6 -8 10 -11 10 -2 0
-4 -4 -4 -10z"/>
<path d="M7541 4484 c0 -11 3 -14 6 -6 3 7 2 16 -1 19 -3 4 -6 -2 -5 -13z"/>
<path d="M5107 4438 c-16 -16 -27 -31 -25 -33 4 -4 39 25 57 48 23 29 -2 18
-32 -15z"/>
<path d="M4962 4440 c0 -14 2 -19 5 -12 2 6 2 18 0 25 -3 6 -5 1 -5 -13z"/>
<path d="M7494 4363 c-13 -51 -18 -107 -18 -225 -1 -87 1 -158 4 -158 3 0 12
9 20 19 7 11 17 18 21 15 10 -6 22 33 14 46 -3 5 -13 10 -21 10 -8 0 -14 7
-14 16 0 10 6 14 15 10 43 -16 64 41 23 59 -26 11 -37 45 -15 45 8 0 18 -10
22 -22 7 -21 8 -20 14 12 8 37 -6 77 -33 99 -14 12 -16 8 -17 -30 -1 -40 -2
-41 -8 -14 -4 17 -4 40 1 53 4 13 8 39 8 58 0 20 5 44 10 55 6 10 7 19 2 19
-5 0 -18 -30 -28 -67z"/>
<path d="M11790 4421 c0 -5 5 -13 10 -16 6 -3 10 -2 10 4 0 5 -4 13 -10 16 -5
3 -10 2 -10 -4z"/>
<path d="M8637 4399 c7 -7 15 -10 18 -7 3 3 -2 9 -12 12 -14 6 -15 5 -6 -5z"/>
<path d="M8678 4383 c7 -3 16 -2 19 1 4 3 -2 6 -13 5 -11 0 -14 -3 -6 -6z"/>
<path d="M5005 4351 c-3 -6 0 -28 7 -50 13 -43 64 -77 98 -66 12 4 22 -1 29
-12 6 -10 11 -14 11 -10 0 5 -9 22 -21 38 -20 28 -49 39 -49 19 0 -5 -9 -10
-20 -10 -25 0 -27 35 -4 44 15 6 14 10 -6 31 -25 27 -35 30 -45 16z"/>
<path d="M4927 4281 c-2 -10 -1 -24 3 -30 10 -17 34 14 26 34 -8 21 -23 19
-29 -4z"/>
<path d="M1380 4222 c0 -5 7 -15 15 -22 8 -7 15 -9 15 -6 0 4 -7 14 -15 22 -8
9 -15 11 -15 6z"/>
<path d="M8095 4179 c-11 -16 -1 -19 13 -3 7 8 8 14 3 14 -5 0 -13 -5 -16 -11z"/>
<path d="M10697 4148 c5 -7 31 -41 57 -75 26 -35 56 -68 67 -73 23 -13 -56 99
-97 137 -27 25 -42 31 -27 11z"/>
<path d="M4856 4103 c-2 -3 8 -16 25 -30 22 -19 29 -33 29 -61 -1 -41 -5 -47
-71 -110 -31 -29 -51 -41 -62 -36 -25 9 -22 17 28 68 47 49 55 75 30 96 -20
17 -25 12 -78 -89 l-45 -84 22 -18 21 -18 -32 -33 c-18 -19 -33 -39 -33 -44 0
-12 81 -41 139 -50 35 -6 39 -3 91 58 100 116 177 181 268 229 64 33 88 51 90
67 2 12 2 22 0 23 -4 1 -176 27 -230 36 -35 5 -38 3 -38 -20 0 -13 -7 -30 -15
-37 -13 -11 -22 -8 -55 19 -39 31 -73 45 -84 34z"/>
<path d="M8155 4054 c-16 -12 -17 -17 -7 -23 11 -7 10 -10 -3 -15 -9 -3 -13
-10 -10 -16 8 -13 45 -13 45 0 0 10 58 50 73 50 4 0 7 -7 7 -16 0 -13 3 -14
15 -4 12 10 16 8 24 -11 10 -26 5 -43 -10 -33 -5 3 -7 9 -5 13 3 4 -1 8 -9 8
-24 0 -17 -26 8 -31 18 -5 58 -3 100 3 19 3 3 33 -30 56 -41 27 -100 33 -148
15 -23 -9 -26 -8 -21 5 7 19 -3 19 -29 -1z"/>
<path d="M10495 4040 c-3 -6 1 -7 9 -4 18 7 21 14 7 14 -6 0 -13 -4 -16 -10z"/>
<path d="M8730 4019 c-17 -11 -28 -23 -25 -28 3 -5 1 -12 -5 -16 -17 -10 -11
-25 10 -25 11 0 20 5 20 10 0 17 60 48 81 43 10 -3 19 -10 19 -15 0 -6 -7 -8
-15 -4 -11 4 -15 -1 -15 -18 0 -22 5 -23 83 -29 45 -4 92 -9 105 -13 16 -5 22
-2 22 10 0 9 -7 19 -15 22 -8 4 -13 10 -10 15 8 11 -33 32 -51 25 -8 -3 -14
-1 -14 4 0 6 -6 10 -14 10 -8 0 -16 4 -18 9 -1 5 -31 11 -65 14 -49 3 -68 1
-93 -14z m24 -14 c-10 -8 -23 -14 -29 -14 -5 0 -1 6 9 14 11 8 24 15 30 15 5
0 1 -7 -10 -15z"/>
<path d="M10646 4030 c5 -8 9 -18 9 -22 0 -3 3 -9 7 -13 3 -4 5 0 4 9 -1 9 -8
22 -16 29 -10 10 -11 9 -4 -3z"/>
<path d="M10520 4000 c-12 -7 -10 -9 7 -7 12 0 19 5 17 9 -6 10 -6 10 -24 -2z"/>
<path d="M10460 3990 c0 -5 5 -10 11 -10 5 0 7 5 4 10 -3 6 -8 10 -11 10 -2 0
-4 -4 -4 -10z"/>
<path d="M10670 3980 c-9 -6 -10 -10 -3 -10 6 0 15 5 18 10 8 12 4 12 -15 0z"/>
<path d="M7437 3949 c-10 -13 -14 -32 -11 -46 4 -14 2 -23 -5 -23 -6 0 -11 5
-11 12 0 6 -3 9 -6 6 -3 -4 0 -16 6 -28 10 -18 14 -20 21 -9 6 9 7 4 3 -16 -3
-16 -14 -37 -24 -46 -22 -19 -33 -136 -12 -131 6 1 12 -2 12 -8 0 -5 -7 -10
-15 -10 -27 0 -46 -45 -45 -107 1 -32 -4 -84 -10 -116 -5 -31 -11 -133 -13
-226 l-2 -168 47 42 c26 23 63 50 81 58 38 18 76 56 45 44 -16 -6 -17 2 -12
102 4 82 1 118 -10 152 -9 24 -16 52 -16 62 0 9 -5 17 -11 17 -6 0 -9 9 -6 20
3 11 1 23 -4 26 -15 9 -10 34 6 34 8 0 15 5 15 10 0 6 -7 10 -15 10 -21 0 -19
13 9 69 14 27 25 57 25 67 -2 58 16 132 39 162 29 38 23 50 -30 58 -29 5 -38
2 -51 -17z"/>
<path d="M10536 3958 c3 -5 10 -6 15 -3 13 9 11 12 -6 12 -8 0 -12 -4 -9 -9z"/>
<path d="M10654 3948 c-3 -4 -2 -8 3 -8 10 0 -19 -20 -30 -20 -5 0 -6 4 -3 8
3 5 -6 8 -19 8 -37 -2 -35 -18 3 -33 19 -8 31 -10 28 -4 -5 8 40 45 56 46 20
1 13 11 -8 11 -14 0 -28 -4 -30 -8z m-39 -28 c3 -5 1 -10 -4 -10 -6 0 -11 5
-11 10 0 6 2 10 4 10 3 0 8 -4 11 -10z"/>
<path d="M10793 3925 c-6 -14 -7 -23 -2 -19 13 8 31 44 22 44 -4 0 -13 -11
-20 -25z"/>
<path d="M9460 3901 c0 -6 4 -13 10 -16 6 -3 7 1 4 9 -7 18 -14 21 -14 7z"/>
<path d="M10486 3891 c-4 -5 -2 -12 3 -15 5 -4 12 -2 15 3 4 5 2 12 -3 15 -5
4 -12 2 -15 -3z"/>
<path d="M10530 3885 c-15 -18 1 -26 23 -10 15 10 15 14 3 18 -8 3 -20 0 -26
-8z"/>
<path d="M10600 3881 c0 -5 7 -14 15 -21 8 -7 15 -19 15 -26 0 -8 5 -14 10
-14 6 0 10 4 10 9 0 5 3 18 6 28 5 15 4 15 -5 3 -9 -13 -11 -13 -11 1 0 9 -7
20 -16 23 -21 8 -24 8 -24 -3z"/>
<path d="M10296 3867 c3 -10 9 -15 12 -12 3 3 0 11 -7 18 -10 9 -11 8 -5 -6z"/>
<path d="M10704 3860 c-35 -14 -41 -32 -7 -20 26 9 27 9 9 -5 -11 -8 -27 -15
-36 -15 -17 0 -54 -53 -44 -63 4 -3 -16 -4 -42 -2 -27 2 -44 1 -37 -1 6 -3 9
-18 6 -35 -3 -19 2 -35 13 -47 17 -16 18 -16 11 2 -9 24 17 66 41 66 15 0 15
-2 2 -10 -8 -5 -11 -10 -6 -10 15 0 136 131 130 141 -6 11 -12 11 -40 -1z"/>
<path d="M3159 3845 c18 -8 38 -15 45 -14 15 1 -46 28 -64 28 -8 0 0 -6 19
-14z"/>
<path d="M10567 3853 c-4 -3 1 -12 11 -20 16 -13 15 -14 -5 -8 -18 5 -22 3
-17 -9 7 -19 12 -19 39 -3 29 17 31 40 4 32 -15 -5 -19 -4 -15 4 8 12 -6 15
-17 4z"/>
<path d="M11770 3823 c0 -15 31 -46 38 -38 3 3 -4 15 -16 28 -12 12 -22 16
-22 10z"/>
<path d="M10602 3801 c4 -13 18 -16 19 -4 0 4 -5 9 -11 12 -7 2 -11 -2 -8 -8z"/>
<path d="M10573 3793 c-15 -5 -17 -23 -4 -23 5 0 11 7 15 15 3 8 4 15 3 14 -1
0 -8 -3 -14 -6z"/>
<path d="M9362 3745 c-35 -40 -26 -60 14 -30 10 8 28 15 38 15 18 0 18 1 1 20
-23 26 -27 25 -53 -5z"/>
<path d="M491 3738 c-6 -17 -4 -25 8 -29 21 -9 46 15 38 35 -9 23 -36 19 -46
-6z"/>
<path d="M10871 3755 c-1 -5 4 -38 9 -71 6 -34 12 -85 15 -114 3 -29 10 -60
16 -69 7 -12 8 -7 3 19 -4 19 -8 64 -9 100 -2 53 -32 171 -34 135z"/>
<path d="M10726 3702 c-3 -5 1 -9 9 -9 8 0 12 4 9 9 -3 4 -7 8 -9 8 -2 0 -6
-4 -9 -8z"/>
<path d="M10589 3663 c0 -5 -2 -23 -3 -40 -2 -19 2 -37 10 -44 11 -9 14 -7 14
10 0 12 -5 32 -11 43 -10 18 -9 20 6 14 15 -5 16 -4 5 9 -14 17 -20 19 -21 8z"/>
<path d="M10732 3605 c0 -16 2 -22 5 -12 2 9 2 23 0 30 -3 6 -5 -1 -5 -18z"/>
<path d="M1 3556 c-1 -37 2 -47 10 -39 8 8 8 22 1 50 l-10 38 -1 -49z"/>
<path d="M10723 3543 c-3 -10 -8 -21 -10 -25 -7 -13 39 -30 64 -23 l26 6 -29
30 c-32 34 -42 36 -51 12z"/>
<path d="M10611 3534 c-7 -9 -20 -13 -29 -9 -9 3 -13 2 -8 -2 15 -16 52 -9 53
9 2 21 2 21 -16 2z"/>
<path d="M10573 3485 c0 -7 7 -11 15 -7 9 3 13 1 9 -5 -4 -6 1 -10 11 -9 11 1
16 -6 15 -18 -1 -13 2 -15 10 -7 7 7 7 14 -1 24 -7 8 -8 18 -4 22 4 5 1 5 -5
1 -7 -4 -21 -2 -31 3 -14 7 -19 6 -19 -4z"/>
<path d="M8280 3470 c29 -23 60 -26 60 -6 0 14 -30 26 -65 26 -18 0 -18 -2 5
-20z"/>
<path d="M10730 3471 c15 -11 14 -11 -22 -15 -8 0 -13 -15 -13 -36 0 -26 4
-34 15 -31 8 2 20 4 27 4 7 0 10 4 7 8 -2 5 -11 6 -18 3 -8 -3 -17 0 -21 6 -8
13 5 30 26 34 8 1 23 7 34 14 17 9 17 11 3 12 -9 0 -25 3 -35 6 -15 5 -15 4
-3 -5z"/>
<path d="M8724 3461 c10 -16 -5 -41 -25 -41 -12 0 -16 -5 -13 -15 7 -16 30
-14 102 12 46 17 50 33 11 44 -36 10 -81 10 -75 0z"/>
<path d="M8657 3453 c-10 -9 -9 -23 2 -23 5 0 11 7 15 15 5 15 -5 20 -17 8z"/>
<path d="M10570 3445 c0 0 9 -8 19 -17 18 -16 20 -15 18 1 0 9 -9 17 -19 17
-10 0 -18 -1 -18 -1z"/>
<path d="M8631 3394 c0 -11 3 -14 6 -6 3 7 2 16 -1 19 -3 4 -6 -2 -5 -13z"/>
<path d="M10774 3400 c-6 -6 -20 -12 -32 -15 -32 -6 -44 -15 -38 -30 2 -7 0
-17 -4 -21 -10 -10 7 -94 23 -109 6 -7 8 -3 4 12 -3 12 -2 21 2 20 7 -2 11 7
11 26 0 8 -3 7 -10 -3 -5 -8 -13 -11 -17 -6 -10 9 26 38 38 30 17 -10 31 7 18
22 -8 10 -9 18 0 27 6 8 8 17 4 20 -3 4 0 13 7 22 14 17 10 21 -6 5z m-5 -87
c4 -3 -28 2 -47 6 -2 1 0 6 3 11 5 8 12 7 23 -2 10 -7 19 -14 21 -15z"/>
<path d="M4961 3325 c3 -11 20 -23 44 -31 22 -8 47 -18 55 -23 9 -4 31 -11 50
-15 l35 -6 -30 12 c-16 6 -59 27 -94 46 -52 29 -62 32 -60 17z"/>
<path d="M10668 3293 c5 -9 7 -33 5 -53 -4 -24 -1 -40 7 -45 9 -5 11 -4 6 4
-4 6 -1 14 7 17 12 4 12 12 -2 50 -9 24 -19 44 -24 44 -4 0 -4 -7 1 -17z"/>
<path d="M8170 3266 c-8 -11 -15 -34 -16 -51 -15 -184 -19 -263 -16 -278 3
-10 20 -24 39 -32 18 -8 53 -30 77 -50 48 -39 61 -44 47 -16 -6 10 -8 21 -5
23 2 3 -5 52 -16 109 -11 57 -20 129 -20 159 0 44 -6 64 -27 95 -42 62 -48 66
-63 41z"/>
<path d="M11761 3224 c0 -11 3 -14 6 -6 3 7 2 16 -1 19 -3 4 -6 -2 -5 -13z"/>
<path d="M10576 3158 c3 -5 10 -6 15 -3 13 9 11 12 -6 12 -8 0 -12 -4 -9 -9z"/>
<path d="M10891 3148 c-1 -10 -9 -18 -18 -18 -15 0 -16 -2 -3 -10 17 -10 35
12 26 33 -2 7 -5 4 -5 -5z"/>
<path d="M6450 3121 c5 -11 10 -38 10 -61 0 -49 14 -80 37 -80 11 0 14 6 9 23
-3 12 -6 36 -6 54 0 17 -7 38 -15 47 -8 8 -15 19 -15 25 0 6 -7 11 -15 11 -12
0 -13 -4 -5 -19z"/>
<path d="M10575 3120 c-2 -3 0 -12 6 -20 6 -11 9 -12 9 -2 0 7 6 12 14 10 8
-2 14 1 13 7 -2 10 -36 15 -42 5z"/>
<path d="M10704 3019 c0 -9 6 -15 12 -12 20 7 23 29 5 29 -9 0 -17 -8 -17 -17z"/>
<path d="M4882 3014 c15 -16 117 -48 126 -40 5 6 -74 40 -113 50 -28 7 -29 6
-13 -10z"/>
<path d="M7968 2991 l-37 -17 32 -19 c18 -11 35 -19 40 -17 4 1 7 -3 7 -9 0
-8 5 -8 15 1 8 7 15 28 15 46 0 40 -14 42 -72 15z"/>
<path d="M10664 2973 c-4 -10 -6 -22 -5 -28 5 -17 9 -40 10 -50 2 -25 35 29
37 61 1 23 -1 32 -6 24 -5 -8 -7 -17 -4 -21 2 -4 -1 -11 -7 -15 -7 -4 -9 -3
-5 4 3 5 0 13 -6 15 -10 4 -10 6 0 6 6 1 12 6 12 11 0 16 -17 11 -26 -7z m31
-53 c-3 -5 -12 -10 -18 -10 -7 0 -6 4 3 10 19 12 23 12 15 0z"/>
<path d="M6516 2900 c3 -25 10 -49 14 -55 5 -5 9 -13 9 -17 6 -41 15 -68 22
-68 5 0 9 4 9 10 0 5 7 7 15 4 9 -4 15 0 15 10 0 18 16 22 22 5 2 -6 9 0 16
15 10 22 9 28 -10 46 -12 11 -28 20 -35 20 -7 0 -13 7 -13 15 0 9 -9 15 -23
15 -15 0 -28 9 -35 23 -10 19 -11 15 -6 -23z"/>
<path d="M9286 2914 c-8 -21 -8 -24 3 -24 12 0 22 28 12 35 -5 3 -12 -2 -15
-11z"/>
<path d="M5881 2886 c-32 -33 -33 -35 -17 -58 9 -12 20 -22 24 -21 4 1 9 -1
12 -4 3 -4 -1 -3 -8 1 -7 4 -11 4 -10 -1 2 -4 -1 -9 -7 -9 -5 -1 -9 2 -8 7 7
22 -46 19 -83 -5 -58 -38 -104 -70 -117 -82 -7 -5 -20 -13 -30 -17 -11 -4 -21
-15 -24 -25 -2 -9 -20 -28 -40 -42 -20 -14 -48 -37 -62 -51 -31 -30 -128 -94
-159 -103 -20 -7 -22 -4 -22 34 l0 41 -37 -26 c-21 -14 -46 -25 -55 -25 -10 0
-18 -4 -18 -10 0 -5 -8 -10 -17 -10 -29 0 -206 -64 -224 -82 -10 -9 -38 -20
-63 -23 -25 -4 -51 -13 -57 -21 -6 -8 -20 -14 -31 -14 -11 0 -31 -9 -45 -20
-14 -11 -33 -20 -43 -20 -9 0 -44 -11 -78 -25 -34 -14 -71 -25 -82 -25 -11 0
-28 -4 -38 -9 -32 -16 -87 -33 -119 -38 -18 -3 -38 -11 -44 -19 -6 -8 -23 -14
-38 -14 -14 0 -40 -9 -58 -19 -35 -22 -113 -120 -113 -142 0 -8 -5 -20 -11
-26 -6 -6 -17 -22 -23 -35 -6 -12 -21 -24 -33 -26 -15 -2 -33 -24 -59 -70 -95
-172 -177 -224 -408 -262 -65 -10 -87 -38 -84 -104 1 -36 -2 -51 -12 -54 -13
-3 -12 -2 0 7 8 6 10 11 4 11 -27 0 -21 -17 17 -56 33 -33 46 -41 63 -35 11 4
39 4 61 1 22 -3 65 0 96 7 30 6 72 10 93 7 31 -4 39 -1 43 15 3 14 17 20 56
25 28 4 72 15 97 25 65 26 302 101 319 101 8 0 24 9 36 20 12 11 54 29 94 40
40 11 102 34 138 50 36 17 71 30 78 30 7 0 23 8 36 18 13 10 47 27 74 37 28
10 52 21 55 25 3 4 21 15 40 24 19 9 49 25 65 36 50 33 107 63 175 93 56 25
83 30 190 36 74 4 130 3 138 -2 8 -7 32 -1 72 17 34 15 66 25 73 23 9 -4 9 -6
0 -6 -7 -1 -13 -6 -13 -12 0 -6 -11 -20 -25 -31 -55 -43 -19 -36 81 17 97 51
111 55 172 55 37 0 83 5 102 9 40 11 206 58 330 94 47 14 112 31 145 38 33 7
64 16 69 20 12 11 -149 0 -234 -16 -67 -13 -266 -46 -450 -75 -159 -24 -303
-41 -333 -38 -24 3 -17 6 31 12 59 8 82 19 68 33 -3 4 -57 1 -118 -6 -97 -10
-133 -20 -258 -68 -317 -123 -367 -142 -420 -158 -56 -18 -135 -54 -203 -93
-48 -28 -70 -28 -129 0 -41 19 -48 27 -53 60 -8 45 -48 83 -107 98 -36 10 -50
26 -48 55 0 5 17 8 37 6 34 -3 90 -29 180 -83 54 -32 155 -28 232 11 53 26
218 78 276 87 27 4 65 14 85 22 19 8 58 18 85 22 28 4 118 26 200 50 156 43
255 67 315 76 l35 5 -25 -21 c-14 -12 -33 -28 -44 -36 -22 -15 -15 -44 12 -44
31 0 122 30 122 40 0 6 -23 10 -52 10 -57 0 -60 6 -9 15 18 3 44 13 59 23 l26
17 -32 3 c-21 2 -30 7 -26 14 5 7 1 9 -9 5 -22 -8 -47 1 -47 18 0 14 -132 28
-178 19 -60 -12 -99 41 -49 67 26 14 328 316 375 376 18 24 31 47 27 53 -3 5
1 10 10 10 9 0 13 5 10 10 -3 6 0 10 8 10 8 0 14 8 13 18 0 9 5 16 11 15 8 -2
5 10 -7 32 -28 49 -26 54 19 48 32 -4 39 -2 43 15 12 45 -37 44 -81 -2z
m-1552 -1122 c-12 -15 -49 -20 -49 -6 0 10 43 29 53 24 4 -2 3 -10 -4 -18z"/>
<path d="M2190 2858 c1 -71 17 -119 51 -152 l31 -31 -6 49 c-3 27 -6 77 -6
112 l0 64 -35 0 c-35 0 -35 -1 -35 -42z"/>
<path d="M10486 2891 c-4 -5 -2 -12 3 -15 5 -4 12 -2 15 3 4 5 2 12 -3 15 -5
4 -12 2 -15 -3z"/>
<path d="M10565 2861 c-3 -5 -2 -12 3 -15 5 -3 9 1 9 9 0 17 -3 19 -12 6z"/>
<path d="M10454 2838 c-3 -5 -2 -8 3 -7 21 4 34 -2 31 -14 -2 -7 1 -14 7 -15
5 -1 9 8 9 20 0 15 -6 22 -22 23 -13 1 -25 -2 -28 -7z"/>
<path d="M10419 2803 c-1 -4 -2 -14 -3 -21 0 -7 -7 -16 -13 -20 -7 -4 14 -8
47 -8 46 0 57 3 48 13 -6 8 -22 11 -40 8 -24 -5 -29 -3 -25 9 4 9 2 18 -3 21
-6 4 -11 3 -11 -2z"/>
<path d="M4720 2767 c0 -17 42 -37 76 -37 22 0 91 -24 144 -49 17 -8 50 -3 50
7 0 8 -122 47 -180 57 -19 4 -45 13 -57 21 -28 17 -33 18 -33 1z"/>
<path d="M8208 2763 c6 -2 18 -2 25 0 6 3 1 5 -13 5 -14 0 -19 -2 -12 -5z"/>
<path d="M10335 2738 c-11 -32 -11 -38 -1 -40 5 -2 10 12 12 30 4 37 0 42 -11
10z"/>
<path d="M10420 2730 c-8 -5 -12 -12 -9 -15 4 -3 12 1 19 10 14 17 11 19 -10
5z"/>
<path d="M10295 2721 c-3 -5 -2 -12 3 -15 5 -3 9 1 9 9 0 17 -3 19 -12 6z"/>
<path d="M2215 2675 c4 -27 17 -115 30 -195 13 -80 31 -197 39 -260 39 -288
113 -700 129 -717 4 -3 7 -17 7 -29 0 -24 13 -38 24 -27 3 3 1 12 -5 19 -20
24 -2 44 38 44 52 0 224 44 256 65 23 14 27 25 27 62 0 50 -23 103 -45 103
-29 0 -14 36 25 60 22 14 40 29 40 34 0 18 -54 66 -74 66 -13 0 -74 -53 -166
-142 l-145 -143 155 157 c108 110 157 154 163 145 5 -8 7 -5 3 8 -2 11 -8 40
-12 65 -3 25 -17 67 -29 93 -12 27 -21 60 -19 73 1 13 -2 22 -7 18 -5 -3 -9 0
-9 6 0 7 -9 19 -21 29 -11 9 -22 28 -22 43 -2 21 -5 24 -19 17 -14 -7 -16 -6
-12 6 4 8 1 15 -5 15 -6 0 -11 5 -11 10 0 6 6 10 13 9 25 -3 47 1 47 10 0 13
-57 34 -91 34 -16 0 -29 5 -29 10 0 6 -3 7 -7 3 -4 -3 9 -20 28 -36 42 -36 24
-38 -40 -5 -83 44 -186 197 -198 295 -4 37 -13 56 -35 77 l-30 28 7 -50z"/>
<path d="M7055 2701 c-3 -5 -2 -12 3 -15 5 -3 9 1 9 9 0 17 -3 19 -12 6z"/>
<path d="M10365 2699 c-3 -4 2 -6 10 -5 21 3 28 13 10 13 -9 0 -18 -4 -20 -8z"/>
<path d="M3910 2674 c-14 -8 -39 -14 -56 -14 -17 0 -46 -11 -65 -25 -19 -13
-43 -29 -54 -34 -11 -5 -33 -23 -48 -40 -15 -17 -41 -34 -57 -37 -19 -4 -30
-13 -32 -27 -2 -11 -12 -21 -22 -23 -10 -1 -22 -7 -25 -12 -3 -5 -17 -13 -30
-17 -14 -4 -33 -16 -44 -26 -20 -18 -99 -59 -115 -59 -4 0 -16 -13 -25 -30
-10 -16 -24 -30 -31 -30 -6 0 -27 -11 -45 -24 -18 -14 -39 -22 -47 -19 -8 3
-14 1 -14 -5 0 -16 55 -24 92 -13 18 5 58 19 88 30 30 12 66 21 80 21 20 0 22
2 10 10 -13 9 -11 14 10 31 14 12 46 40 71 62 43 40 162 130 200 153 10 6 32
22 49 36 34 28 64 27 80 -2 14 -26 70 -37 85 -16 7 9 18 16 26 16 10 1 9 4 -3
14 -30 23 -20 24 22 4 44 -22 44 -38 0 -38 -16 0 -32 -5 -36 -11 -3 -6 -21
-17 -38 -25 -17 -8 -44 -23 -61 -34 -16 -11 -40 -25 -52 -31 -13 -7 -23 -16
-23 -21 0 -4 -9 -17 -20 -28 -27 -27 -29 -116 -2 -105 9 3 40 9 67 12 43 5 97
30 115 53 9 12 74 22 170 26 70 4 99 9 113 22 19 16 19 16 12 -8 -4 -14 -17
-45 -28 -70 -12 -25 -21 -53 -22 -63 -1 -10 -13 -29 -26 -43 -24 -26 -25 -26
-138 -19 -63 4 -125 11 -138 16 -14 5 -37 9 -53 9 -16 0 -32 5 -35 10 -3 6
-27 10 -53 10 -26 0 -76 9 -112 20 -74 23 -121 25 -138 8 -13 -13 -17 -68 -4
-69 77 -8 98 -13 105 -25 12 -20 36 -17 56 8 l18 22 14 -25 c39 -69 55 -89 74
-89 29 0 45 -19 45 -52 0 -33 6 -34 57 -9 21 10 65 29 98 41 144 55 613 277
614 292 1 10 -64 -11 -67 -22 -2 -6 -12 -10 -22 -10 -27 0 -133 -28 -139 -37
-9 -13 -50 -33 -65 -33 -7 0 -19 -7 -26 -15 -7 -8 -20 -15 -30 -15 -13 0 -16
6 -12 27 3 15 11 34 19 41 7 7 13 20 13 28 0 8 4 14 9 14 5 0 11 9 14 20 3 12
14 20 27 20 11 0 19 4 16 9 -3 5 15 15 40 22 31 10 49 21 55 37 7 17 16 22 44
22 19 0 35 4 35 9 0 15 -10 18 -79 25 -35 4 -72 11 -82 16 -10 6 -57 14 -106
19 -48 5 -107 16 -129 24 -48 18 -119 60 -130 79 -6 9 -11 4 -15 -17 l-7 -30
-1 32 c-1 39 -9 44 -41 27z"/>
<path d="M7083 2675 c0 -7 6 -11 14 -8 7 3 13 6 13 8 0 2 -6 5 -13 8 -8 3 -14
-1 -14 -8z"/>
<path d="M6081 2667 c-6 -8 -13 -24 -15 -38 -3 -13 -5 -24 -6 -24 -1 0 -3 -7
-5 -15 -2 -8 -11 -32 -20 -54 -20 -46 -6 -71 19 -35 9 13 16 29 16 35 0 6 7
17 15 24 13 11 13 15 3 21 -8 5 -9 9 -2 9 6 0 23 -12 37 -26 25 -24 47 -26 47
-2 0 13 -63 117 -71 118 -4 0 -12 -6 -18 -13z"/>
<path d="M10349 2663 c7 -13 8 -23 2 -23 -5 0 -12 6 -14 13 -4 10 -6 10 -6 0
-1 -16 -31 -17 -31 -2 0 5 -5 7 -12 3 -20 -12 43 -34 65 -23 9 6 23 7 29 3 7
-4 8 -3 4 4 -9 16 7 15 22 0 9 -9 12 -9 12 3 0 7 -11 19 -24 25 -21 10 -24 9
-18 -5 4 -13 0 -12 -18 4 l-23 20 12 -22z"/>
<path d="M6610 2629 c0 -16 29 -59 34 -51 3 6 -3 21 -14 33 -11 13 -19 21 -20
18z"/>
<path d="M6920 2600 c-8 -5 -12 -12 -9 -15 4 -3 12 1 19 10 14 17 11 19 -10 5z"/>
<path d="M7027 2560 c-19 -22 -22 -35 -7 -25 10 6 34 45 28 45 -2 0 -11 -9
-21 -20z"/>
<path d="M6096 2562 c-3 -5 1 -9 9 -9 8 0 12 4 9 9 -3 4 -7 8 -9 8 -2 0 -6 -4
-9 -8z"/>
<path d="M10641 2544 c0 -11 3 -14 6 -6 3 7 2 16 -1 19 -3 4 -6 -2 -5 -13z"/>
<path d="M6855 2540 c-3 -6 1 -7 9 -4 18 7 21 14 7 14 -6 0 -13 -4 -16 -10z"/>
<path d="M6896 2528 c3 -5 10 -6 15 -3 13 9 11 12 -6 12 -8 0 -12 -4 -9 -9z"/>
<path d="M10610 2503 c-17 -12 -21 -13 -15 -2 5 8 -2 5 -14 -6 -21 -18 -21
-20 -4 -26 17 -7 17 -8 1 -10 -10 -1 -23 -2 -29 -3 -6 0 -17 -10 -25 -20 -8
-11 -14 -16 -14 -12 0 4 -25 -17 -55 -47 -30 -30 -55 -58 -55 -63 0 -4 20 11
44 35 29 29 50 42 60 38 11 -5 16 0 16 13 0 13 7 20 20 20 11 0 20 7 20 16 0
11 6 14 20 9 13 -4 20 -2 20 7 0 8 9 24 21 37 26 28 20 36 -11 14z m-60 -63
c0 -5 -5 -10 -11 -10 -5 0 -7 5 -4 10 3 6 8 10 11 10 2 0 4 -4 4 -10z"/>
<path d="M6995 2499 c-4 -6 -5 -12 -2 -15 2 -3 7 2 10 11 7 17 1 20 -8 4z"/>
<path d="M6830 2460 c-6 -11 -8 -20 -6 -20 3 0 10 9 16 20 6 11 8 20 6 20 -3
0 -10 -9 -16 -20z"/>
<path d="M4700 2439 c-25 -11 -53 -22 -62 -25 -20 -7 -24 -24 -7 -24 14 0 130
50 144 62 17 15 -29 7 -75 -13z"/>
<path d="M6169 2442 c-35 -24 -59 -46 -59 -52 0 -3 11 -7 26 -8 17 -1 23 2 18
11 -5 9 -4 9 7 0 23 -22 37 -14 41 23 5 43 -1 48 -33 26z"/>
<path d="M6856 2438 c3 -5 10 -6 15 -3 13 9 11 12 -6 12 -8 0 -12 -4 -9 -9z"/>
<path d="M6943 2433 c-13 -2 -23 -11 -23 -19 0 -8 9 -14 23 -13 12 0 16 3 9 6
-10 4 -9 8 5 19 10 7 16 13 13 12 -3 0 -15 -3 -27 -5z"/>
<path d="M6760 2401 c-34 -29 -35 -30 -15 -44 11 -9 17 -19 12 -23 -4 -4 -7
-2 -7 5 0 7 -4 9 -10 6 -5 -3 -10 -1 -10 5 0 6 -10 4 -25 -6 -14 -9 -22 -21
-18 -27 3 -5 2 -7 -4 -4 -5 3 -26 -11 -46 -31 l-37 -38 22 -64 c14 -42 39 -86
70 -123 26 -32 48 -64 48 -72 0 -8 4 -16 9 -20 5 -3 15 21 21 52 15 82 49 183
71 215 11 14 19 30 19 35 0 5 11 20 25 33 26 24 32 40 16 40 -5 0 -13 -9 -16
-20 -3 -11 -13 -20 -21 -20 -8 0 -14 -7 -14 -15 0 -18 -9 -19 -49 -2 -29 12
-30 14 -14 30 14 14 15 21 6 36 -8 12 -8 22 -1 29 5 5 8 19 6 31 -3 21 -4 21
-38 -8z"/>
<path d="M10560 2400 c0 -5 5 -10 10 -10 6 0 10 5 10 10 0 6 -4 10 -10 10 -5
0 -10 -4 -10 -10z"/>
<path d="M6182 2345 c-21 -11 -21 -13 -5 -19 10 -4 19 -2 21 3 2 6 8 11 13 11
4 0 6 -7 3 -15 -7 -17 22 -21 46 -5 11 7 9 11 -14 20 -16 6 -32 12 -35 14 -3
1 -16 -3 -29 -9z"/>
<path d="M10348 2243 c7 -3 16 -2 19 1 4 3 -2 6 -13 5 -11 0 -14 -3 -6 -6z"/>
<path d="M10267 2192 c-42 -43 -48 -59 -14 -40 12 7 27 13 32 13 6 1 9 7 7 13
-1 7 2 22 8 32 15 28 9 25 -33 -18z"/>
<path d="M5830 2162 c-42 -28 -51 -37 -36 -40 10 -2 21 0 25 6 3 5 24 13 46
18 29 7 40 15 40 29 0 29 -16 26 -75 -13z"/>
<path d="M3790 1974 c0 -8 5 -12 10 -9 6 4 8 11 5 16 -9 14 -15 11 -15 -7z"/>
<path d="M2720 1976 c0 -2 8 -10 18 -17 15 -13 16 -12 3 4 -13 16 -21 21 -21
13z"/>
<path d="M3775 1889 c4 -5 9 -29 12 -52 2 -23 9 -46 14 -51 13 -14 11 -60 -3
-74 -6 -6 -9 -15 -5 -19 11 -10 25 9 29 37 5 41 -13 142 -27 157 -16 16 -29
17 -20 2z"/>
<path d="M3430 1884 c0 -18 24 -44 40 -44 33 0 30 16 -5 33 -19 9 -35 14 -35
11z"/>
<path d="M6525 1801 c-27 -10 -79 -27 -115 -39 -36 -11 -102 -34 -147 -51 -46
-16 -101 -32 -123 -36 -22 -4 -42 -11 -45 -15 -3 -5 -25 -12 -49 -15 -43 -7
-121 -58 -112 -74 6 -9 43 -8 52 2 4 4 16 7 26 7 10 0 29 6 41 14 12 8 43 18
70 21 26 4 49 11 52 15 3 5 23 11 44 15 22 4 57 15 78 26 20 10 46 19 56 19
17 0 67 18 109 41 10 5 23 6 30 4 8 -3 33 15 58 40 49 50 47 52 -25 26z"/>
<path d="M3556 1743 c-4 -4 -24 -8 -45 -9 -21 0 -51 -9 -67 -20 -16 -10 -38
-24 -49 -30 -12 -7 -21 -24 -23 -43 -2 -17 -7 -31 -12 -31 -17 0 1 -27 26 -39
30 -13 45 -14 24 -1 -13 8 -11 13 9 32 13 13 20 16 16 8 -4 -8 9 4 29 27 43
49 94 83 126 83 13 0 20 5 18 13 -5 14 -40 21 -52 10z"/>
<path d="M9450 1657 c0 -66 -33 -202 -54 -226 -9 -10 -16 -28 -16 -40 0 -15
-4 -20 -12 -15 -7 4 -10 4 -6 -1 11 -12 -21 -65 -47 -77 -13 -6 -22 -14 -19
-19 2 -4 -17 -11 -43 -14 -27 -3 -58 -8 -70 -11 -13 -2 -53 12 -99 36 -43 22
-80 38 -82 35 -18 -18 177 -145 222 -145 15 0 45 23 85 64 34 36 62 67 62 70
-1 4 1 5 4 4 2 -2 39 31 82 72 l78 75 -85 -89 c-47 -49 -105 -108 -130 -132
-25 -23 -42 -45 -39 -48 11 -11 129 36 155 62 14 15 44 58 66 95 35 60 39 74
33 110 -9 60 -63 235 -75 242 -6 4 -10 -15 -10 -48z"/>
<path d="M5537 1620 c-110 -39 -124 -46 -115 -55 13 -13 238 69 238 87 0 12
-5 11 -123 -32z"/>
<path d="M6430 1614 c-14 -7 -34 -11 -45 -8 -11 4 -17 3 -13 -1 10 -11 -393
-146 -516 -174 -28 -6 -25 -9 55 -50 46 -23 87 -48 91 -54 5 -8 20 -1 45 19
21 17 54 39 73 49 18 10 40 24 48 32 8 7 23 11 33 8 10 -4 19 -3 19 2 0 4 11
13 24 19 21 10 24 9 20 -5 -3 -9 3 -5 13 9 41 57 96 109 138 131 25 13 45 27
45 31 0 9 2 10 -30 -8z"/>
<path d="M5922 1608 c-5 -5 -26 -10 -46 -11 -20 -1 -36 -5 -36 -9 0 -5 -8 -8
-17 -8 -18 0 -16 1 -206 -60 -70 -22 -133 -40 -141 -40 -7 0 -19 -7 -26 -15
-16 -19 -146 -21 -186 -3 -22 10 -28 10 -39 -5 -7 -9 -17 -17 -24 -17 -6 0
-14 -6 -17 -13 -3 -9 -30 -13 -83 -15 -75 -2 -115 -8 -206 -31 -71 -17 -280
-57 -475 -91 -69 -12 -154 -30 -190 -40 -36 -11 -78 -21 -94 -22 -43 -4 -46
-28 -3 -28 43 0 271 34 447 66 74 14 160 30 190 35 30 5 71 13 90 19 19 6 72
13 117 17 73 5 83 4 89 -12 10 -24 -2 -29 -139 -58 -228 -49 -342 -67 -607
-97 -260 -29 -392 -50 -458 -71 -18 -6 -39 -12 -45 -13 -7 -2 -19 -6 -27 -9
-8 -4 -33 -13 -55 -21 -46 -17 -19 -21 35 -6 35 10 177 38 235 46 17 2 129 8
250 13 240 10 442 40 688 101 87 22 112 20 120 -10 4 -17 -24 -60 -41 -60 -4
0 -70 -9 -147 -19 -77 -11 -223 -29 -325 -41 -297 -34 -479 -69 -627 -121
-151 -54 -199 -89 -73 -54 184 51 427 84 695 94 209 8 334 5 349 -9 11 -11
-35 -18 -169 -24 -96 -5 -178 -15 -435 -56 -76 -12 -163 -42 -168 -59 -4 -10
13 -12 84 -8 49 3 109 10 134 16 25 7 77 16 115 21 39 5 93 14 120 19 61 12
245 14 262 3 28 -17 -12 -39 -92 -51 -115 -17 -129 -19 -166 -35 -28 -12 -31
-16 -17 -21 20 -8 73 -2 158 16 89 18 124 17 128 -5 5 -25 -23 -46 -60 -46
-17 0 -31 -7 -35 -15 -9 -25 1 -27 48 -11 46 17 109 21 109 9 0 -5 -22 -20
-49 -35 -40 -23 -60 -28 -107 -26 -33 1 -52 3 -42 5 9 2 19 11 22 19 10 26
-87 18 -130 -11 -38 -26 -99 -36 -76 -13 19 19 15 40 -6 29 -16 -8 -90 -19
-274 -40 -40 -5 -64 -13 -77 -28 -17 -17 -18 -22 -6 -27 8 -3 15 -14 15 -25 0
-11 4 -22 9 -25 12 -8 -11 -112 -24 -109 -6 2 -11 18 -13 38 -4 48 -22 45 -22
-4 0 -22 -6 -44 -15 -51 -22 -18 -19 -66 6 -89 l21 -19 -21 -11 c-31 -17 -27
-91 5 -91 8 0 14 -4 14 -9 0 -10 -31 -23 -46 -20 -5 1 -20 1 -34 0 -25 -1 -25
-2 -26 -101 -1 -55 2 -100 7 -100 5 0 9 16 9 35 0 19 5 35 10 35 6 0 10 -9 10
-21 0 -18 7 -14 52 25 39 34 61 46 84 46 28 0 33 5 49 46 17 45 17 47 -4 89
-13 27 -21 61 -21 94 l0 52 98 95 c105 104 165 150 181 139 14 -8 14 -21 -1
-37 -38 -40 -39 -44 -3 -40 19 2 40 10 46 18 6 8 21 14 33 14 11 0 30 7 40 15
27 20 66 19 66 -1 0 -14 -2 -15 -17 -3 -11 10 -14 10 -9 2 4 -7 3 -13 -1 -13
-21 0 -44 -26 -37 -43 7 -18 34 -24 34 -7 0 6 7 10 16 10 9 0 14 -5 12 -12 -4
-10 -71 -34 -128 -44 -102 -18 -145 -22 -150 -14 -3 5 -36 -21 -74 -58 -61
-60 -67 -70 -63 -98 3 -18 17 -51 32 -74 22 -36 28 -40 38 -27 14 18 64 49
119 75 21 9 38 22 38 29 0 7 8 28 17 48 13 28 26 38 57 46 74 20 90 29 77 42
-9 9 -16 9 -31 -1 -23 -14 -30 -15 -30 -4 0 13 63 32 106 32 21 0 53 -9 70
-19 32 -19 84 -80 84 -97 0 -5 -16 -26 -35 -47 -41 -45 -43 -60 -12 -84 22
-16 23 -19 9 -43 -22 -38 -83 -70 -134 -70 -55 1 -82 21 -82 63 -1 32 -2 33
-47 20 -9 -3 -24 3 -34 13 -16 16 -18 16 -27 1 -5 -9 -16 -17 -23 -17 -8 0
-15 -7 -15 -15 0 -8 -4 -15 -8 -15 -5 0 -17 -8 -28 -18 -44 -38 -86 -63 -99
-58 -10 3 -15 -5 -17 -27 -2 -27 -7 -32 -28 -32 -14 0 -38 -10 -54 -22 l-29
-23 301 0 300 0 10 29 c8 22 7 31 -1 35 -7 2 -5 5 5 5 9 1 18 7 20 13 3 9 36
12 125 9 111 -2 123 -1 138 17 9 11 30 34 46 51 15 17 38 49 50 70 12 23 27
37 34 34 8 -2 15 3 17 12 4 22 67 43 100 34 15 -4 28 -3 30 2 3 8 76 22 183
35 28 3 55 10 62 16 7 5 21 7 33 3 12 -4 28 -1 37 7 12 9 15 9 9 1 -5 -10 8
-13 54 -13 53 0 61 2 58 18 -3 12 -13 17 -41 17 -20 0 -37 3 -37 8 0 4 6 7 13
7 8 0 7 4 -3 10 -8 5 -10 10 -4 10 6 0 14 -3 18 -7 4 -4 24 -6 44 -4 28 2 43
-3 56 -18 11 -12 25 -21 31 -21 7 0 18 -7 25 -15 7 -9 19 -14 27 -11 7 3 13 1
13 -5 0 -6 7 -9 15 -5 9 3 15 0 15 -9 0 -7 7 -20 15 -29 13 -13 13 -15 -4 -21
-11 -3 -22 -12 -25 -20 -3 -8 -12 -15 -21 -15 -8 0 -15 -4 -15 -9 0 -11 -58 1
-98 21 -16 9 -35 12 -42 8 -15 -9 -81 7 -95 23 -26 30 -85 48 -85 27 0 -5 6
-10 13 -10 8 0 7 -4 -3 -11 -11 -8 -7 -9 18 -4 24 5 32 3 32 -8 0 -38 -64 -53
-109 -26 -22 13 -42 18 -58 14 -14 -3 -31 -1 -38 5 -9 7 -31 9 -58 5 -38 -6
-46 -11 -57 -40 -7 -19 -17 -33 -21 -32 -4 1 -14 -7 -22 -17 -12 -16 -25 -19
-64 -17 -45 2 -51 -1 -84 -36 -20 -21 -45 -45 -56 -53 -10 -8 -32 -32 -47 -53
l-28 -37 1101 0 c1009 0 1101 1 1101 16 0 14 2 15 17 3 12 -10 55 -15 157 -16
98 -1 132 1 111 7 -98 30 -296 72 -376 80 -52 5 -128 14 -169 19 -41 6 -122
16 -180 22 -58 7 -108 15 -112 18 -4 4 3 29 16 56 60 128 87 196 107 270 24
87 59 258 54 263 -2 2 -49 -44 -105 -101 -130 -135 -183 -163 -319 -170 -64
-3 -96 -9 -102 -18 -6 -10 -9 -10 -9 -2 0 8 -10 11 -27 7 -22 -4 -34 1 -58 27
-23 25 -25 30 -10 24 70 -28 154 -37 140 -15 -2 4 44 9 103 12 100 4 110 6
149 35 23 17 57 48 75 69 52 61 156 164 167 164 5 0 16 20 24 45 10 29 12 45
5 45 -20 0 -146 -90 -164 -118 -32 -49 -78 -67 -53 -21 6 12 8 23 5 27 -3 3
-6 0 -6 -5 0 -6 -19 -14 -42 -18 -56 -9 -61 -13 -43 -31 22 -23 29 -62 14 -80
-11 -13 -26 -15 -76 -11 -49 4 -77 0 -130 -19 -73 -26 -223 -35 -223 -13 0 5
-4 7 -10 4 -6 -4 -10 5 -10 19 0 29 3 31 30 14 15 -10 22 -9 37 4 10 8 30 18
46 22 15 3 27 13 27 21 0 8 9 20 20 27 28 18 25 26 -7 22 -15 -1 -33 1 -41 5
-7 4 -34 -3 -63 -17 -41 -20 -63 -25 -119 -23 -44 1 -70 -2 -70 -8 0 -20 -39
-11 -54 12 -8 12 -30 65 -48 117 -28 82 -33 109 -34 200 -1 98 1 107 23 129
32 33 26 50 -27 78 -25 13 -44 26 -42 28 7 14 -1 35 -22 58 -17 19 -26 41 -28
73 l-3 46 -50 -43 -50 -44 33 39 c18 21 30 41 27 44 -3 4 -9 2 -13 -4 -4 -6
-40 -12 -81 -13 -41 -1 -78 -4 -82 -7 -4 -2 -10 0 -14 6 -3 5 -19 10 -35 10
-16 0 -32 4 -35 10 -8 13 52 49 95 56 19 3 44 9 55 14 11 5 52 16 90 25 109
25 147 37 184 59 31 18 34 18 28 2 -4 -10 -3 -15 4 -11 5 4 8 12 6 18 -3 7 4
21 14 33 16 16 16 21 5 21 -9 0 -19 -4 -24 -9z m-272 -311 c0 -2 -10 -12 -22
-23 l-23 -19 19 23 c18 21 26 27 26 19z m-80 -80 c0 -2 -10 -12 -22 -23 l-23
-19 19 23 c18 21 26 27 26 19z m-90 -91 c0 -2 -8 -10 -17 -17 -16 -13 -17 -12
-4 4 13 16 21 21 21 13z m377 -496 c-7 -32 3 -46 55 -78 36 -22 95 -41 68 -23
-13 9 -13 11 1 11 9 0 21 -11 27 -24 8 -18 22 -25 64 -31 65 -10 57 -8 94 -27
17 -10 39 -33 48 -51 9 -19 23 -37 31 -41 8 -3 15 -12 15 -20 0 -7 13 -28 29
-45 16 -17 43 -55 59 -84 16 -28 49 -74 74 -102 41 -46 65 -85 52 -85 -2 0
-15 7 -29 16 -23 15 -23 14 -19 -8 l5 -23 -18 25 c-63 86 -167 209 -174 204
-5 -3 -11 6 -15 20 -5 20 -15 27 -55 35 -28 6 -55 11 -61 11 -23 0 -108 46
-113 61 -8 23 -87 95 -114 104 -39 12 -62 97 -45 163 9 33 28 27 21 -8z m230
5 c18 -4 30 -11 27 -16 -9 -16 -58 -9 -84 11 l-25 19 25 -3 c14 -2 40 -7 57
-11z m-57 -26 c56 -34 64 -44 23 -28 -41 16 -96 12 -111 -8 -8 -12 -15 -14
-23 -6 -7 7 -1 20 23 42 18 17 34 31 35 31 2 0 25 -14 53 -31z m-1635 -158
c-3 -6 -11 -11 -16 -11 -5 0 -4 6 3 14 14 16 24 13 13 -3z m1374 -233 c12 -7
21 -21 21 -31 0 -10 3 -16 8 -14 4 3 16 1 26 -3 18 -6 13 -13 -39 -64 l-59
-58 -44 14 c-37 11 -50 22 -70 59 l-26 46 27 29 c15 16 27 32 27 36 0 12 106
1 129 -14z m-979 -178 c0 -5 -5 -10 -11 -10 -5 0 -7 5 -4 10 3 6 8 10 11 10 2
0 4 -4 4 -10z"/>
<path d="M5998 423 c6 -2 18 -2 25 0 6 3 1 5 -13 5 -14 0 -19 -2 -12 -5z"/>
<path d="M5996 402 c-3 -5 5 -14 17 -19 79 -36 97 -42 103 -32 8 13 6 15 -41
32 -22 8 -47 17 -56 21 -10 4 -20 3 -23 -2z"/>
<path d="M3343 1563 c4 -3 -1 -12 -11 -19 -24 -17 -10 -27 21 -15 29 11 28 41
-1 41 -8 0 -12 -3 -9 -7z"/>
<path d="M5795 1420 c-4 -6 -11 -7 -17 -4 -7 4 -8 2 -4 -5 6 -9 11 -9 22 0 14
11 18 19 10 19 -3 0 -8 -5 -11 -10z"/>
<path d="M3495 1400 c-3 -5 3 -10 15 -10 12 0 18 5 15 10 -3 6 -10 10 -15 10
-5 0 -12 -4 -15 -10z"/>
<path d="M4228 1396 c-116 -28 -38 -35 124 -11 56 9 104 18 107 20 9 10 -186
2 -231 -9z"/>
<path d="M3517 1379 c-9 -6 -15 -15 -12 -20 4 -5 12 -6 18 -3 8 5 9 4 2 -3 -5
-6 -58 -25 -116 -43 -100 -32 -160 -63 -146 -77 4 -3 42 8 86 26 44 17 85 31
91 31 18 0 140 54 140 63 0 4 -9 7 -20 7 -13 0 -18 5 -14 15 7 17 -3 19 -29 4z"/>
<path d="M4015 1373 c-97 -11 -255 -56 -242 -69 6 -6 131 16 172 31 22 8 72
17 110 21 50 5 64 9 50 15 -21 8 -39 8 -90 2z"/>
<path d="M2529 1333 c-1 -5 -2 -31 -3 -60 -1 -48 1 -52 24 -56 14 -3 29 -3 34
0 9 6 2 96 -9 113 -7 12 -44 13 -46 3z"/>
<path d="M6130 1264 c0 -3 27 -31 60 -62 71 -68 86 -111 49 -141 -22 -17 -22
-20 -7 -43 9 -13 21 -49 28 -81 7 -35 17 -57 25 -57 25 0 45 12 38 23 -3 6 -1
7 6 3 14 -9 151 53 151 68 0 15 66 86 81 86 6 0 36 25 66 56 49 52 53 58 39
73 -12 13 -14 25 -7 49 12 42 0 41 -18 0 -8 -18 -23 -45 -34 -60 -11 -14 -16
-31 -13 -37 4 -6 3 -11 -2 -11 -5 0 -16 -13 -23 -28 -15 -31 -107 -111 -177
-155 -48 -31 -52 -27 -18 13 27 32 61 168 51 200 -17 52 -140 110 -235 110
-33 0 -60 -3 -60 -6z"/>
<path d="M6756 1215 c-66 -23 -62 -35 5 -18 35 9 79 16 97 15 18 0 30 4 27 9
-9 13 -84 10 -129 -6z"/>
<path d="M7233 1154 c-18 -14 -33 -32 -33 -40 0 -20 14 -17 36 9 55 62 53 76
-3 31z"/>
<path d="M7345 941 c-3 -5 21 -12 52 -15 32 -4 78 -9 102 -11 64 -7 47 1 -39
19 -87 18 -107 20 -115 7z"/>
<path d="M9004 818 c-9 -18 -27 -46 -39 -63 -15 -21 -27 -63 -39 -139 -10 -60
-29 -154 -43 -210 -14 -55 -25 -112 -24 -125 1 -17 -3 -22 -14 -17 -12 4 -13
2 -4 -12 8 -13 7 -42 -5 -112 -23 -136 -23 -140 19 -140 32 0 35 3 40 38 3 20
10 57 15 82 10 52 27 158 40 245 l9 60 -4 -71 c-3 -39 -8 -85 -11 -102 -6 -28
-4 -32 15 -32 17 0 21 6 21 29 0 16 11 62 25 103 25 74 33 138 16 138 -5 0
-21 -14 -35 -31 -27 -32 -31 -26 -20 30 4 17 10 28 15 25 5 -3 16 10 24 30 17
40 21 121 5 111 -13 -8 -12 23 5 115 7 41 12 77 10 78 -2 2 -11 -11 -21 -30z
m-17 -240 c-3 -8 -6 -5 -6 6 -1 11 2 17 5 13 3 -3 4 -12 1 -19z"/>
<path d="M4468 783 c6 -2 18 -2 25 0 6 3 1 5 -13 5 -14 0 -19 -2 -12 -5z"/>
<path d="M8250 726 c96 -47 102 -49 90 -27 -5 11 -37 28 -74 40 -89 29 -93 26
-16 -13z"/>
<path d="M8175 691 c-6 -11 1 -16 71 -52 29 -15 76 -43 106 -63 64 -42 82 -47
44 -11 -14 13 -26 28 -26 34 0 5 -35 26 -77 47 -43 20 -86 41 -95 45 -10 5
-19 5 -23 0z"/>
<path d="M1315 336 c-92 -39 -156 -77 -152 -89 6 -21 54 -19 99 3 101 49 118
61 118 79 0 29 -10 30 -65 7z"/>
<path d="M9705 288 c-33 -23 -124 -116 -188 -192 -23 -27 -50 -58 -59 -68 -10
-10 -18 -20 -18 -23 0 -3 50 -5 110 -5 l110 0 0 30 c0 23 4 30 20 30 17 0 20
7 20 50 0 28 4 50 8 50 12 0 34 84 30 118 l-3 31 -30 -21z"/>
<path d="M5250 210 c0 -5 5 -10 10 -10 6 0 10 5 10 10 0 6 -4 10 -10 10 -5 0
-10 -4 -10 -10z"/>
<path d="M3990 175 c0 -8 2 -15 4 -15 2 0 6 7 10 15 3 8 1 15 -4 15 -6 0 -10
-7 -10 -15z"/>
<path d="M861 113 c-1 -12 4 -25 9 -28 12 -7 12 2 0 30 -8 19 -9 19 -9 -2z"/>
<path d="M8765 68 c-11 -29 -21 -56 -23 -60 -2 -5 10 -8 27 -8 l31 0 0 60 c0
33 -3 60 -8 60 -4 0 -16 -24 -27 -52z"/>
<path d="M10518 78 c-7 -7 -17 -13 -23 -14 -43 -2 -105 -35 -105 -56 0 -4 25
-8 55 -8 30 0 55 4 55 8 0 11 35 52 44 52 4 0 14 7 22 15 14 13 13 15 -10 15
-13 0 -31 -6 -38 -12z"/>
<path d="M740 62 c0 -15 38 -44 44 -34 3 6 -5 17 -19 26 -14 9 -25 13 -25 8z"/>
<path d="M874 31 c18 -19 40 -31 55 -31 l25 0 -24 23 c-14 12 -28 21 -33 19
-4 -1 -18 3 -30 9 -18 10 -17 6 7 -20z"/>
<path d="M1470 31 l-45 -26 74 -3 c40 -2 76 -1 78 2 3 3 3 17 -1 31 -8 33 -45
32 -106 -4z"/>
<path d="M700 45 c0 -2 9 -9 20 -15 16 -9 18 -8 14 5 -5 13 -34 22 -34 10z"/>
<path d="M986 34 c-11 -8 -16 -14 -10 -14 13 0 39 18 34 24 -3 2 -14 -2 -24
-10z"/>
<path d="M4000 31 c0 -6 -7 -11 -15 -11 -8 0 -15 -4 -15 -10 0 -5 11 -10 25
-10 25 0 35 23 15 35 -5 3 -10 1 -10 -4z"/>
<path d="M650 20 c-9 -6 -10 -10 -3 -10 6 0 18 -3 27 -6 11 -4 16 -1 16 10 0
18 -17 21 -40 6z"/>
</g>
</svg>
